<svg width="66" height="66" viewBox="0 0 66 66" fill="none" xmlns="http://www.w3.org/2000/svg">
<g filter="url(#filter0_d_1_3385)">
<circle cx="32" cy="30" r="25" fill="white"/>
</g>
<path fill-rule="evenodd" clip-rule="evenodd" d="M31.9922 21.5313C30.8537 21.5273 29.7646 21.9303 28.9602 22.6483C28.1558 23.3673 27.7035 24.3443 27.7035 25.3593C27.699 26.9103 28.7408 28.3123 30.344 28.9103C31.9438 29.5043 33.7901 29.1803 35.0198 28.0823C36.2461 26.9883 36.6151 25.3363 35.9524 23.9023C35.2886 22.4693 33.7237 21.5313 31.9922 21.5313ZM29.7107 20.4063C31.9473 19.5783 34.5271 20.0393 36.2361 21.5743C37.9506 23.1053 38.4603 25.4143 37.5287 27.4143C36.6017 29.4183 34.4123 30.7233 31.9912 30.7193C28.6869 30.7113 26.0104 28.3163 26.0104 25.3593L26.0194 25.1293C26.1162 23.0523 27.5529 21.2073 29.7107 20.4063ZM29.619 32.7663C31.2357 32.6453 32.8625 32.6453 34.4792 32.7663C35.3624 32.8213 36.2411 32.9343 37.1029 33.1103C38.9705 33.4463 40.1923 34.1063 40.7019 35.0743C41.1103 35.8753 41.098 36.8013 40.6716 37.5983C40.1529 38.5673 38.9311 39.2273 37.032 39.5713C36.1758 39.7423 35.3005 39.8523 34.4174 39.9033C33.4464 40.0003 32.6206 40.0003 31.8511 40.0003H31.5485C31.1131 39.9573 30.7834 39.6293 30.7834 39.2393C30.7834 38.8483 31.1131 38.5203 31.5485 38.4773H32.2201C32.8929 38.4693 33.5736 38.4423 34.2509 38.3913C35.0508 38.3443 35.8462 38.2423 36.6326 38.0903C37.977 37.8283 38.8253 37.4493 39.0897 36.9463C39.2956 36.5633 39.2956 36.1173 39.0897 35.7353C38.8253 35.2233 37.977 34.8283 36.6585 34.5903C35.8631 34.4303 35.0553 34.3243 34.2419 34.2813C32.7219 34.1563 31.1918 34.1563 29.6719 34.2813C28.8675 34.3283 28.0675 34.4263 27.2811 34.5783C25.9311 34.8443 25.0963 35.2233 24.824 35.7233C24.7227 35.9143 24.6744 36.1213 24.6744 36.3323C24.6744 36.5433 24.7227 36.7543 24.824 36.9463C25.2898 37.5203 26.0019 37.8913 26.7883 37.9773L26.9031 38.0043C27.1619 38.0823 27.3644 38.2703 27.4431 38.5123C27.5354 38.7813 27.4476 39.0783 27.2192 39.2783C26.9909 39.4773 26.6567 39.5433 26.3575 39.4533C25.0873 39.2703 23.9757 38.5943 23.3164 37.6063C22.8945 36.8093 22.8945 35.8793 23.3164 35.0823C23.8396 34.0863 25.0569 33.4463 26.938 33.1023C27.8212 32.9303 28.7178 32.8213 29.619 32.7663Z" fill="#200E32"/>
<defs>
<filter id="filter0_d_1_3385" x="0" y="0" width="66" height="66" filterUnits="userSpaceOnUse" color-interpolation-filters="sRGB">
<feFlood flood-opacity="0" result="BackgroundImageFix"/>
<feColorMatrix in="SourceAlpha" type="matrix" values="0 0 0 0 0 0 0 0 0 0 0 0 0 0 0 0 0 0 127 0" result="hardAlpha"/>
<feOffset dx="1" dy="3"/>
<feGaussianBlur stdDeviation="4"/>
<feColorMatrix type="matrix" values="0 0 0 0 0 0 0 0 0 0 0 0 0 0 0 0 0 0 0.1 0"/>
<feBlend mode="normal" in2="BackgroundImageFix" result="effect1_dropShadow_1_3385"/>
<feBlend mode="normal" in="SourceGraphic" in2="effect1_dropShadow_1_3385" result="shape"/>
</filter>
</defs>
</svg>
