<svg width="19" height="20" viewBox="0 0 19 20" fill="none" xmlns="http://www.w3.org/2000/svg">
<mask id="mask0_1_230" style="mask-type:luminance" maskUnits="userSpaceOnUse" x="0" y="0" width="19" height="20">
<path fill-rule="evenodd" clip-rule="evenodd" d="M0.200195 0H18.2002V20H0.200195V0Z" fill="white"/>
</mask>
<g mask="url(#mask0_1_230)">
<path fill-rule="evenodd" clip-rule="evenodd" d="M15.238 10.6281C15.2513 9.06917 16.1532 7.63224 17.6255 6.81927C16.697 5.61232 15.1993 4.87036 13.58 4.81936C11.8524 4.65937 10.264 5.72932 9.3444 5.72932C8.42919 5.72932 7.13375 4.83936 5.69572 4.85836C3.78793 4.91736 2.05146 5.87831 1.12299 7.39025C-0.823488 10.4481 0.622278 14.9989 2.56986 17.4678C3.45523 18.6787 4.56055 20.0497 6.01958 19.9987C7.47861 19.9477 7.9539 19.1787 9.64284 19.1787C11.3351 19.1787 11.8524 19.9987 13.2904 19.9677C14.7284 19.9407 15.7475 18.7297 16.676 17.5188C17.3326 16.6398 17.8455 15.6789 18.2003 14.6709C16.4085 13.98 15.2424 12.39 15.238 10.6281ZM12.4527 3.19037C13.295 2.30841 13.7183 1.15946 13.6233 -0.000488281C12.3411 0.0935076 11.1495 0.640483 10.3073 1.51944C9.49155 2.37041 9.09364 3.48736 9.20196 4.60831C10.472 4.62031 11.6713 4.09333 12.4527 3.19037Z" fill="black"/>
</g>
</svg>
