<svg width="13" height="18" viewBox="0 0 13 18" fill="none" xmlns="http://www.w3.org/2000/svg">
<path fill-rule="evenodd" clip-rule="evenodd" d="M10.1589 14.1304L12.5806 7.43885C12.692 7.13104 12.5079 6.78129 12.1696 6.65816C11.8313 6.53504 11.4663 6.68492 11.3549 6.99274L8.93318 13.6843C8.30205 15.4282 6.23337 16.2777 4.3168 15.5802C2.40024 14.8826 1.35649 12.9002 1.98763 11.1563L5.08208 2.606C5.48988 1.47922 6.8308 0.928519 8.06915 1.37924C9.3075 1.82997 9.98406 3.11497 9.57627 4.24175L6.68362 12.2344C6.49809 12.7471 5.88927 12.9971 5.32586 12.792C4.76246 12.587 4.45528 12.0035 4.64081 11.4909L7.26437 4.24173C7.37577 3.93392 7.19163 3.58418 6.85334 3.46105C6.51505 3.33792 6.15009 3.48781 6.03869 3.79562L3.41513 11.0448C3.00733 12.1716 3.68389 13.4566 4.92224 13.9073C6.16059 14.358 7.50151 13.8073 7.90931 12.6805L10.802 4.68786C11.4331 2.94398 10.3893 0.96156 8.47278 0.263988C6.55621 -0.433585 4.48753 0.416002 3.8564 2.15989L0.761942 10.7102C-0.0910511 13.0671 1.32289 15.7526 3.91318 16.6954C6.50346 17.6382 9.30588 16.4873 10.1589 14.1304Z" fill="#474747"/>
</svg>
