<svg width="20" height="20" viewBox="0 0 20 20" fill="none" xmlns="http://www.w3.org/2000/svg">
<path fill-rule="evenodd" clip-rule="evenodd" d="M20 11.2401C20 5.04286 14.8534 0 8.5274 0V1.14299C14.2097 1.14299 18.8335 5.67265 18.8335 11.2401H20ZM1.44662 6.54989L3.13834 4.89227C3.15088 4.87999 3.17363 4.87341 3.20308 4.87341C3.26928 4.87341 3.3696 4.9057 3.45826 4.99286L5.95195 7.43599C6.08056 7.56229 6.09193 7.71288 6.0546 7.74974L5.27742 8.51097C4.31039 9.45879 5.4244 11.5405 7.02397 13.1075C7.82011 13.8879 8.69499 14.5105 9.48909 14.8623C10.7959 15.4403 11.4439 15.082 11.7139 14.8177L12.492 14.0562C12.5284 14.0196 12.6821 14.0307 12.811 14.1568L15.3044 16.6013C15.4333 16.7273 15.4447 16.8771 15.4082 16.9136L13.7153 18.5713C13.2461 19.0325 12.1082 18.9407 10.6716 18.3258C9.00819 17.6149 7.16162 16.3121 5.47339 14.6591C3.8922 13.1098 2.53001 11.2301 1.73358 9.50337C1.08996 8.10807 0.982933 7.00423 1.44662 6.54989ZM0.670724 9.97315C1.52169 11.8216 2.97165 13.8242 4.64851 15.4672C6.43705 17.2197 8.41136 18.607 10.2054 19.3739C11.1818 19.7914 12.0567 20 12.7913 20C13.5239 20 14.1185 19.7937 14.5399 19.3794L16.2328 17.722C16.7466 17.2174 16.7008 16.3524 16.1292 15.7932L13.6356 13.3487C13.0637 12.7895 12.1809 12.7449 11.6671 13.2481L10.8902 14.0093C10.6747 14.1668 9.34427 13.765 7.84852 12.2994C6.35044 10.8327 5.94041 9.52795 6.10226 9.31907L6.88032 8.55784C7.39387 8.0535 7.34721 7.18711 6.7765 6.62791L4.28164 4.18477C3.71093 3.62556 2.82701 3.57956 2.31316 4.08419L0.62173 5.74181C-0.223694 6.56876 -0.206488 8.07236 0.670724 9.97315Z" fill="#FC4F72"/>
<path fill-rule="evenodd" clip-rule="evenodd" d="M8.74414 3.12219V4.26518C12.7896 4.26518 16.0806 7.48983 16.0806 11.4523H17.2471C17.2471 6.85919 13.4332 3.12219 8.74414 3.12219Z" fill="#FC4F72"/>
<path fill-rule="evenodd" clip-rule="evenodd" d="M13.1107 11.4522H14.2772C14.2772 8.46414 11.7948 6.03186 8.74414 6.03186V7.17485C11.1524 7.17485 13.1107 9.09364 13.1107 11.4522Z" fill="#FC4F72"/>
</svg>
