<svg width="66" height="66" viewBox="0 0 66 66" fill="none" xmlns="http://www.w3.org/2000/svg">
<g filter="url(#filter0_d_1_3408)">
<circle cx="32" cy="30" r="25" fill="white"/>
</g>
<path fill-rule="evenodd" clip-rule="evenodd" d="M30.0165 25.6462L30.5407 26.1704C30.67 26.2997 30.8389 26.3641 31.0081 26.3641C31.1773 26.3641 31.3462 26.2997 31.4755 26.1704C31.7336 25.9123 31.7336 25.4939 31.4755 25.2357L30.9512 24.7115L34.6439 21.0188L35.5218 21.8967C35.1628 22.4365 34.9731 23.0717 34.9744 23.7199C34.9744 25.5431 36.4565 27.0252 38.2797 27.0252C38.9279 27.0265 39.5632 26.8368 40.1029 26.4778L40.9808 27.3557L37.2881 31.0484L36.7639 30.5242C36.5973 30.3523 36.3521 30.2839 36.121 30.3434C35.89 30.4042 35.7092 30.5847 35.6484 30.816C35.5889 31.0471 35.6573 31.2923 35.8292 31.4589L36.3534 31.9831L29.3555 38.9811L28.4776 38.1032C28.8365 37.5634 29.0262 36.9282 29.0249 36.28C29.0249 34.4568 27.5428 32.9747 25.7196 32.9747C25.0715 32.9734 24.4362 33.1631 23.8964 33.5221L23.0186 32.6442L30.0165 25.6462ZM21.6165 33.1115L23.3829 34.8779C23.641 35.136 24.0595 35.136 24.3176 34.8779C24.6881 34.5047 25.1929 34.2955 25.7197 34.2968C26.8134 34.2968 27.7029 35.1863 27.7029 36.28C27.7042 36.8068 27.495 37.3116 27.1218 37.6821C26.8637 37.9402 26.8637 38.3587 27.1218 38.6168L28.8882 40.3832C29.0174 40.5124 29.1863 40.5769 29.3555 40.5769C29.5248 40.5769 29.6937 40.5124 29.8229 40.3832L42.383 27.8231C42.507 27.6991 42.5767 27.5312 42.5767 27.3557C42.5767 27.1802 42.507 27.0123 42.383 26.8883L40.6167 25.122C40.3585 24.8638 39.9401 24.8638 39.6819 25.122C39.3114 25.4952 38.8067 25.7044 38.2798 25.7031C37.1861 25.7031 36.2966 24.8136 36.2966 23.7199C36.2966 23.1904 36.5032 22.6923 36.8777 22.3178C37.1359 22.0596 37.1359 21.6412 36.8777 21.383L35.1114 19.6167C34.8532 19.3586 34.4348 19.3586 34.1766 19.6167L21.6165 32.1768C21.4926 32.3007 21.4229 32.4687 21.4229 32.6442C21.4229 32.8197 21.4926 32.9876 21.6165 33.1115Z" fill="black"/>
<path fill-rule="evenodd" clip-rule="evenodd" d="M33.8454 29.4757L34.5065 30.1368C34.6357 30.266 34.8046 30.3305 34.9739 30.3305C35.1431 30.3305 35.312 30.266 35.4412 30.1368C35.6994 29.8787 35.6994 29.4602 35.4412 29.2021L34.7802 28.541C34.6136 28.3691 34.3683 28.3007 34.1373 28.3602C33.9062 28.421 33.7254 28.6018 33.6646 28.8329C33.6051 29.0639 33.6736 29.3092 33.8454 29.4757ZM32.5231 28.1536C32.6523 28.2829 32.8212 28.3473 32.9905 28.3473C33.1597 28.3473 33.3289 28.2829 33.4578 28.1536C33.716 27.8955 33.716 27.477 33.4578 27.2189L32.7968 26.5578C32.6302 26.386 32.3849 26.3175 32.1539 26.377C31.9228 26.4378 31.742 26.6186 31.6812 26.8497C31.6217 27.0807 31.6902 27.326 31.862 27.4926L32.5231 28.1536Z" fill="black"/>
<defs>
<filter id="filter0_d_1_3408" x="0" y="0" width="66" height="66" filterUnits="userSpaceOnUse" color-interpolation-filters="sRGB">
<feFlood flood-opacity="0" result="BackgroundImageFix"/>
<feColorMatrix in="SourceAlpha" type="matrix" values="0 0 0 0 0 0 0 0 0 0 0 0 0 0 0 0 0 0 127 0" result="hardAlpha"/>
<feOffset dx="1" dy="3"/>
<feGaussianBlur stdDeviation="4"/>
<feColorMatrix type="matrix" values="0 0 0 0 0 0 0 0 0 0 0 0 0 0 0 0 0 0 0.1 0"/>
<feBlend mode="normal" in2="BackgroundImageFix" result="effect1_dropShadow_1_3408"/>
<feBlend mode="normal" in="SourceGraphic" in2="effect1_dropShadow_1_3408" result="shape"/>
</filter>
</defs>
</svg>
