<svg width="66" height="66" viewBox="0 0 66 66" fill="none" xmlns="http://www.w3.org/2000/svg">
<g filter="url(#filter0_d_1_3359)">
<circle cx="32" cy="30" r="25" fill="white"/>
</g>
<path fill-rule="evenodd" clip-rule="evenodd" d="M27.9967 21.668H25.0357C24.6607 21.66 24.2937 21.809 24.0277 22.078C23.7587 22.344 23.6057 22.715 23.6057 23.098V26.121C23.5987 26.508 23.7467 26.887 24.0167 27.16C24.2857 27.438 24.6527 27.586 25.0357 27.578H27.9967C28.3717 27.578 28.7307 27.422 28.9927 27.148C29.2587 26.875 29.4027 26.504 29.3987 26.121V23.098C29.3917 22.309 28.7667 21.672 27.9967 21.668ZM27.996 20C29.668 20.004 31.023 21.391 31.031 23.098V26.121C31.031 26.941 30.711 27.727 30.141 28.309C29.57 28.887 28.801 29.211 27.996 29.207H25.035C23.363 29.203 22.012 27.824 22 26.121V23.098C22.012 21.391 23.363 20.012 25.035 20H27.996ZM38.9639 20C40.6239 20.039 41.9559 21.406 41.9909 23.098V26.109C41.9989 26.93 41.6899 27.719 41.132 28.305C40.5689 28.891 39.8039 29.227 39.0029 29.238H37.7759C37.3619 29.191 37.0459 28.836 37.0459 28.41C37.0459 27.98 37.3619 27.625 37.7759 27.578H38.9639C39.3389 27.578 39.6979 27.422 39.9639 27.148C40.2249 26.875 40.3699 26.504 40.3659 26.121V23.098C40.3539 22.312 39.7329 21.676 38.9639 21.668H36.0029C35.2289 21.668 34.5999 22.309 34.5999 23.098V27.617L34.5929 27.723C34.5299 28.129 34.1819 28.438 33.7679 28.434C33.5499 28.426 33.3469 28.336 33.1979 28.176C33.0499 28.016 32.9719 27.801 32.9789 27.578V23.098C32.9749 22.277 33.2919 21.488 33.8619 20.906C34.4289 20.328 35.1979 20 36.0029 20H38.9639ZM38.9656 32.449H36.0046C35.2306 32.449 34.6016 33.09 34.6016 33.879V36.902C34.6016 37.281 34.7466 37.648 35.0126 37.918C35.2736 38.184 35.6336 38.336 36.0046 38.332H38.9656C39.3366 38.336 39.6956 38.184 39.9576 37.918C40.2236 37.648 40.3676 37.281 40.3676 36.902V33.879C40.3676 33.5 40.2196 33.137 39.9576 32.867C39.6916 32.602 39.3366 32.449 38.9656 32.449ZM26.25 30.793C26.562 30.758 26.863 30.906 27.031 31.18C27.195 31.449 27.195 31.793 27.031 32.063C26.863 32.332 26.562 32.484 26.25 32.449H25.035C24.258 32.449 23.629 33.09 23.625 33.879V36.863C23.645 37.648 24.266 38.281 25.035 38.293H28.016C28.387 38.297 28.746 38.148 29.012 37.879C29.277 37.609 29.426 37.246 29.426 36.863V32.383L29.41 32.27C29.398 31.977 29.539 31.688 29.789 31.527C30.07 31.344 30.434 31.356 30.703 31.555C30.977 31.754 31.102 32.102 31.02 32.43V36.891C31.02 38.602 29.664 39.992 27.984 39.992H25.035C23.375 39.957 22.035 38.59 22 36.891V33.879C22 33.059 22.32 32.273 22.891 31.691C23.457 31.113 24.23 30.789 25.035 30.793H26.25ZM38.9645 30.793C40.6365 30.797 41.9875 32.176 41.9995 33.879V36.902C41.9875 38.609 40.6365 39.988 38.9645 40H36.0035C34.3355 39.988 32.9835 38.605 32.9795 36.902V33.879C32.9795 32.176 34.3315 30.793 36.0035 30.793H38.9645Z" fill="black"/>
<defs>
<filter id="filter0_d_1_3359" x="0" y="0" width="66" height="66" filterUnits="userSpaceOnUse" color-interpolation-filters="sRGB">
<feFlood flood-opacity="0" result="BackgroundImageFix"/>
<feColorMatrix in="SourceAlpha" type="matrix" values="0 0 0 0 0 0 0 0 0 0 0 0 0 0 0 0 0 0 127 0" result="hardAlpha"/>
<feOffset dx="1" dy="3"/>
<feGaussianBlur stdDeviation="4"/>
<feColorMatrix type="matrix" values="0 0 0 0 0 0 0 0 0 0 0 0 0 0 0 0 0 0 0.1 0"/>
<feBlend mode="normal" in2="BackgroundImageFix" result="effect1_dropShadow_1_3359"/>
<feBlend mode="normal" in="SourceGraphic" in2="effect1_dropShadow_1_3359" result="shape"/>
</filter>
</defs>
</svg>
