<svg width="20" height="22" viewBox="0 0 20 22" fill="none" xmlns="http://www.w3.org/2000/svg">
<path fill-rule="evenodd" clip-rule="evenodd" d="M4.3699 2.05059C5.73604 2.05059 6.84571 3.20875 6.84571 4.63115C6.84571 6.05386 5.73604 7.2117 4.3699 7.2117C3.00524 7.2117 1.89527 6.05386 1.89527 4.63115C1.89527 3.20875 3.00524 2.05059 4.3699 2.05059ZM4.36982 8.43792C6.38388 8.43792 8.02207 6.73043 8.02207 4.63116C8.02207 2.5322 6.38388 0.824402 4.36982 0.824402C2.35723 0.824402 0.71875 2.5322 0.71875 4.63116C0.71875 6.73043 2.35606 8.43792 4.36982 8.43792Z" fill="#1D1D1B"/>
<path fill-rule="evenodd" clip-rule="evenodd" d="M3.04521 4.63111L3.04432 4.54988C3.04315 4.51524 3.04315 4.51524 3.04991 4.47446C3.07991 4.30801 2.97521 4.14737 2.81668 4.11641C2.65698 4.08514 2.50316 4.19305 2.47199 4.35951C2.45699 4.42879 2.45258 4.4996 2.4561 4.57011L2.45699 4.63111C2.46169 4.79634 2.5914 4.92816 2.7511 4.92816C2.90992 4.92816 3.03962 4.79757 3.04521 4.63111Z" fill="#1D1D1B"/>
<path fill-rule="evenodd" clip-rule="evenodd" d="M3.02322 3.99904C3.12204 3.99904 3.2141 3.94876 3.26792 3.86262C3.51379 3.47943 3.92731 3.24952 4.36965 3.24952C4.53288 3.24952 4.66376 3.1128 4.66376 2.94297C4.66376 2.77406 4.53288 2.63641 4.36965 2.63641C3.73114 2.63641 3.13469 2.9681 2.7797 3.52112C2.71999 3.61585 2.71411 3.73663 2.7647 3.83626C2.81529 3.93681 2.91528 3.99904 3.02322 3.99904Z" fill="#1D1D1B"/>
<path fill-rule="evenodd" clip-rule="evenodd" d="M12.6045 2.05059C13.9707 2.05059 15.0803 3.20875 15.0803 4.63115C15.0803 6.05386 13.9707 7.2117 12.6045 7.2117C11.2396 7.2117 10.1287 6.05386 10.1287 4.63115C10.1296 3.20875 11.2396 2.05059 12.6045 2.05059ZM12.6044 8.43792C14.6185 8.43792 16.2566 6.73043 16.2566 4.63116C16.2566 2.5322 14.6185 0.824402 12.6044 0.824402C10.5903 0.824402 8.95215 2.5322 8.95215 4.63116C8.95303 6.73043 10.5915 8.43792 12.6044 8.43792Z" fill="#1D1D1B"/>
<path fill-rule="evenodd" clip-rule="evenodd" d="M11.2585 3.99904C11.3573 3.99904 11.4491 3.94876 11.5032 3.86262C11.749 3.47943 12.1626 3.24952 12.6049 3.24952C12.7681 3.24952 12.899 3.1128 12.899 2.94297C12.899 2.77406 12.7681 2.63641 12.6049 2.63641C11.9661 2.63641 11.3699 2.9681 11.0149 3.52112C10.9541 3.61585 10.9482 3.73663 10.9999 3.83626C11.0505 3.93681 11.1505 3.99904 11.2585 3.99904Z" fill="#1D1D1B"/>
<path fill-rule="evenodd" clip-rule="evenodd" d="M18.8575 19.2702C18.7761 19.2512 18.6887 19.2224 18.6278 19.2021C14.6712 17.0311 14.5332 17.0275 14.3585 17.0275C14.1965 17.0275 14.0415 17.0897 13.93 17.2129C13.8186 17.3352 13.7612 17.4848 13.7715 17.6538L13.8577 19.1362C13.8497 19.6117 13.4739 19.9183 12.9959 19.9183H2.0739C1.57421 19.9183 1.17657 19.6978 1.17657 19.2224V11.2088C1.17657 10.6904 1.61421 10.1098 2.0739 10.1098V10.1086H12.9959C13.458 10.1086 13.8486 10.5899 13.8577 11.0892L13.7715 12.4123C13.76 12.5825 13.8174 12.7498 13.9277 12.8746C14.0391 12.9991 14.1953 13.0699 14.3585 13.0699C14.5503 13.0699 14.6021 13.0699 18.6634 10.8042C18.7437 10.7646 18.8046 10.7407 18.8496 10.7275C18.8564 10.7827 18.8611 10.863 18.8587 10.9838L18.8575 19.2702ZM19.6627 9.7959C19.4697 9.59113 19.2297 9.48108 18.9368 9.48108C18.6989 9.48108 18.4427 9.54698 18.1312 9.70363C17.0963 10.2796 16.0587 10.8486 15.019 11.4136L15.0328 11.1837C15.034 11.1696 15.0352 11.1239 15.0352 11.1083C15.0352 9.91577 14.1208 8.88361 12.9958 8.88361H2.07376C0.968502 8.88361 0 10.0163 0 11.2088V19.2224C0 20.3695 0.930561 21.1445 2.07376 21.1445H12.9958C14.1299 21.1445 15.019 20.3027 15.034 19.1457C15.0328 19.1482 15.0328 19.1491 15.0328 19.147L15.0031 18.6369C15.7843 19.0452 16.9986 19.7015 18.1233 20.3192C18.1554 20.337 18.1854 20.3529 18.2198 20.3637C18.5265 20.4618 18.77 20.5301 19.0056 20.5314C19.425 20.5277 19.6788 20.3146 19.8018 20.1362C19.9488 19.9253 19.9994 19.6522 19.9994 19.2834V11.0031C19.9994 10.7588 20.0291 10.184 19.6627 9.7959Z" fill="#1D1D1B"/>
<path fill-rule="evenodd" clip-rule="evenodd" d="M15.0312 19.1468L15.0324 19.1278C15.0324 19.1349 15.0312 19.1407 15.0312 19.1468Z" fill="#1D1D1B"/>
<path fill-rule="evenodd" clip-rule="evenodd" d="M19.0133 20.5326L19.0053 20.5314L18.9959 20.5326H19.0133Z" fill="#1D1D1B"/>
<path fill-rule="evenodd" clip-rule="evenodd" d="M5.32861 10.7218H2.83104C2.24047 10.7218 1.76489 11.4808 1.76489 12.0486V13.6065C1.76489 13.7754 1.89577 13.9115 2.059 13.9115C2.22106 13.9115 2.35311 13.7754 2.35311 13.6049V12.047C2.35311 11.7622 2.61634 11.3361 2.83104 11.3361H5.32861C5.49184 11.3361 5.62272 11.1982 5.62272 11.0284C5.62272 10.8594 5.49184 10.7218 5.32861 10.7218Z" fill="#1D1D1B"/>
<path fill-rule="evenodd" clip-rule="evenodd" d="M6.7972 10.723H6.50309C6.34104 10.723 6.20898 10.8594 6.20898 11.0295C6.20898 11.1981 6.34104 11.3361 6.50309 11.3361H6.7972C6.96043 11.3361 7.09131 11.1981 7.09131 11.0295C7.09131 10.8594 6.96043 10.723 6.7972 10.723Z" fill="#1D1D1B"/>
</svg>
