<svg width="66" height="66" viewBox="0 0 66 66" fill="none" xmlns="http://www.w3.org/2000/svg">
<g filter="url(#filter0_d_1_3374)">
<circle cx="32" cy="30" r="25" fill="white"/>
</g>
<path fill-rule="evenodd" clip-rule="evenodd" d="M38.415 29.0789C38.8187 29.0789 39.1454 29.4 39.1454 29.7989C39.1454 30.1937 38.8187 30.5137 38.415 30.5137H38.0795C37.6758 30.5137 37.3447 30.1937 37.3447 29.7989C37.3447 29.4 37.6758 29.0789 38.0795 29.0789H38.415ZM36.6365 20C40.1466 20 43 22.7958 43 26.2295V33.7705C43 37.2042 40.1466 40 36.6365 40C36.2328 40 35.9017 39.6789 35.9017 39.28C35.9017 38.8853 36.2328 38.5653 36.6365 38.5653C39.3348 38.5653 41.5348 36.4147 41.5348 33.7705V27.7505H37.9213C36.7355 27.7547 35.7686 28.7011 35.7686 29.86C35.7686 31.0242 36.7355 31.9695 37.9213 31.9695H39.4206C39.8287 31.9695 40.1554 32.2947 40.1554 32.6895C40.1554 33.0842 39.8287 33.4084 39.4206 33.4084H37.9213C35.927 33.4042 34.3034 31.8179 34.299 29.86C34.3034 27.9074 35.927 26.3158 37.9213 26.3158H41.5348V26.2295C41.5348 23.5853 39.3348 21.4347 36.6365 21.4347H27.3635C25.1855 21.4347 23.3595 22.8411 22.7226 24.7653H32.3905C32.7953 24.7653 33.122 25.0863 33.122 25.4853C33.122 25.88 32.7953 26.2011 32.3905 26.2011H22.4696L22.4652 26.2295V33.7705C22.4652 36.4147 24.6608 38.5653 27.3635 38.5653H32.0297C32.4345 38.5653 32.7601 38.8853 32.7601 39.28C32.7601 39.6789 32.4345 40 32.0297 40H27.3635C23.8534 40 21 37.2042 21 33.7705V26.2295C21 22.7958 23.8534 20 27.3635 20H36.6365Z" fill="#202244"/>
<defs>
<filter id="filter0_d_1_3374" x="0" y="0" width="66" height="66" filterUnits="userSpaceOnUse" color-interpolation-filters="sRGB">
<feFlood flood-opacity="0" result="BackgroundImageFix"/>
<feColorMatrix in="SourceAlpha" type="matrix" values="0 0 0 0 0 0 0 0 0 0 0 0 0 0 0 0 0 0 127 0" result="hardAlpha"/>
<feOffset dx="1" dy="3"/>
<feGaussianBlur stdDeviation="4"/>
<feColorMatrix type="matrix" values="0 0 0 0 0 0 0 0 0 0 0 0 0 0 0 0 0 0 0.1 0"/>
<feBlend mode="normal" in2="BackgroundImageFix" result="effect1_dropShadow_1_3374"/>
<feBlend mode="normal" in="SourceGraphic" in2="effect1_dropShadow_1_3374" result="shape"/>
</filter>
</defs>
</svg>
