<svg width="24" height="24" viewBox="0 0 24 24" fill="none" xmlns="http://www.w3.org/2000/svg">
<path fill-rule="evenodd" clip-rule="evenodd" d="M2.28631 12.0459C2.96373 13.2214 6.08121 17.8274 11.8162 17.8274C17.5513 17.8274 20.6692 13.2214 21.3466 12.0459C20.6692 10.8708 17.5513 6.26478 11.8162 6.26478C6.08121 6.26478 2.96373 10.8708 2.28631 12.0459ZM11.8162 18.9998C4.50056 18.9998 1.20334 12.544 1.0674 12.2717C0.977532 12.0924 0.977532 11.9099 1.0674 11.7307C1.20334 11.4583 4.50056 4.99982 11.8162 4.99982C19.1319 4.99982 22.4291 11.4583 22.5655 11.7307C22.655 11.9099 22.655 12.0924 22.5655 12.2717C22.4291 12.5874 19.1319 18.9998 11.8162 18.9998Z" fill="black"/>
<path fill-rule="evenodd" clip-rule="evenodd" d="M11.8162 7.52996C9.33235 7.52996 7.3001 9.56221 7.3001 12.0461C7.3001 14.53 9.33235 16.5622 11.8162 16.5622C14.3001 16.5622 16.3324 14.53 16.3324 12.0461C16.3324 9.56221 14.3001 7.52996 11.8162 7.52996ZM11.8162 17.7373C8.65494 17.7373 6.125 15.1613 6.125 12.0461C6.125 8.93086 8.701 6.35486 11.8162 6.35486C14.9315 6.35486 17.5079 8.93086 17.5079 12.0461C17.5079 15.1613 14.9775 17.7373 11.8162 17.7373Z" fill="black"/>
<path fill-rule="evenodd" clip-rule="evenodd" d="M11.8166 15.2072C10.1 15.2072 8.65527 13.8063 8.65527 12.0459C8.65527 11.7306 8.92714 11.4583 9.24282 11.4583C9.5585 11.4583 9.83037 11.7306 9.83037 12.0459C9.83037 13.1288 10.6875 13.9887 11.7705 13.9887C12.8562 13.9887 13.7129 13.1288 13.7129 12.0459C13.7129 10.9633 12.8562 10.1035 11.7705 10.1035C11.4548 10.1035 11.1852 9.83432 11.1852 9.51593C11.1852 9.20025 11.4548 8.93109 11.7705 8.93109C13.4871 8.93109 14.9318 10.3293 14.9318 12.0924C14.9318 13.8523 13.5336 15.2072 11.8166 15.2072Z" fill="black"/>
</svg>
