<svg width="30" height="30" viewBox="0 0 30 30" fill="none" xmlns="http://www.w3.org/2000/svg">
<path d="M30 15C30 23.2843 23.2843 30 15 30C6.71573 30 0 23.2843 0 15C0 6.71573 6.71573 0 15 0C23.2843 0 30 6.71573 30 15Z" fill="#46007C"/>
<path fill-rule="evenodd" clip-rule="evenodd" d="M9.96 21.3952H18.36C19.4447 21.393 20.32 20.5115 20.32 19.4285V15.2066C20.32 14.8981 20.0686 14.6466 19.76 14.6466C19.4514 14.6466 19.2 14.8981 19.2 15.2066V19.4285C19.2022 19.8944 18.8259 20.273 18.36 20.2752H9.96C9.49408 20.273 9.11776 19.8944 9.12 19.4285V11.0419C9.11776 10.576 9.49408 10.1974 9.96 10.1952H14.16C14.4686 10.1952 14.72 9.94376 14.72 9.6352C14.72 9.32664 14.4686 9.0752 14.16 9.0752H9.96C8.87472 9.07744 8 9.95888 8 11.0419V19.4285C8 20.5115 8.87472 21.393 9.96 21.3952Z" fill="white"/>
<path fill-rule="evenodd" clip-rule="evenodd" d="M14.3528 14.2595L18.1457 10.4577L18.9286 11.2451L15.1335 15.0491L14.1294 15.2703L14.3528 14.2595ZM19.3357 9.2677C19.5563 9.05546 19.9063 9.05546 20.1275 9.2677C20.3443 9.48834 20.3443 9.83834 20.1275 10.0595L19.7316 10.4555L18.9398 9.66362L19.3357 9.2677ZM13.2939 13.8591L12.852 15.8824C12.8128 16.0706 12.8694 16.2655 13.0055 16.3987C13.141 16.5303 13.3331 16.5869 13.519 16.5499L15.5406 16.1081C15.6431 16.084 15.7394 16.0314 15.8161 15.9547L20.9194 10.8514C21.5757 10.1951 21.5757 9.13218 20.9194 8.47586C20.2547 7.84138 19.2086 7.84138 18.5439 8.47586L13.449 13.5836C13.3728 13.6603 13.3179 13.7539 13.2939 13.8591Z" fill="white"/>
</svg>
