<svg width="24" height="24" viewBox="0 0 24 24" fill="none" xmlns="http://www.w3.org/2000/svg">
<path fill-rule="evenodd" clip-rule="evenodd" d="M11.9917 3.53134C10.9797 3.52734 10.0117 3.93034 9.2967 4.64834C8.5817 5.36734 8.1797 6.34434 8.1797 7.35934C8.1757 8.91034 9.1017 10.3123 10.5267 10.9103C11.9487 11.5043 13.5897 11.1803 14.6827 10.0823C15.7727 8.98834 16.1007 7.33634 15.5117 5.90234C14.9217 4.46934 13.5307 3.53134 11.9917 3.53134ZM9.96478 2.40633C11.9528 1.57833 14.2458 2.03933 15.7648 3.57433C17.2888 5.10533 17.7418 7.41433 16.9138 9.41433C16.0898 11.4183 14.1438 12.7233 11.9918 12.7193C9.05478 12.7113 6.67578 10.3163 6.67578 7.35933L6.68378 7.12933C6.76978 5.05233 8.04678 3.20733 9.96478 2.40633ZM9.88325 14.7663C11.3203 14.6453 12.7662 14.6453 14.2032 14.7663C14.9882 14.8213 15.7692 14.9343 16.5352 15.1103C18.1952 15.4463 19.2812 16.1063 19.7343 17.0743C20.0972 17.8753 20.0863 18.8013 19.7072 19.5983C19.2462 20.5673 18.1602 21.2273 16.4722 21.5713C15.7113 21.7423 14.9332 21.8523 14.1482 21.9033C13.2852 22.0003 12.5513 22.0003 11.8672 22.0003H11.5982C11.2112 21.9573 10.9183 21.6293 10.9183 21.2393C10.9183 20.8483 11.2112 20.5203 11.5982 20.4773H12.1952C12.7932 20.4693 13.3982 20.4423 14.0002 20.3913C14.7113 20.3443 15.4183 20.2423 16.1173 20.0903C17.3123 19.8283 18.0663 19.4493 18.3013 18.9463C18.4843 18.5633 18.4843 18.1173 18.3013 17.7353C18.0663 17.2233 17.3123 16.8283 16.1403 16.5903C15.4333 16.4303 14.7153 16.3243 13.9923 16.2813C12.6413 16.1563 11.2812 16.1563 9.93025 16.2813C9.21525 16.3283 8.50425 16.4263 7.80525 16.5783C6.60525 16.8443 5.86325 17.2233 5.62125 17.7233C5.53125 17.9143 5.48825 18.1213 5.48825 18.3323C5.48825 18.5433 5.53125 18.7543 5.62125 18.9463C6.03525 19.5203 6.66825 19.8913 7.36725 19.9773L7.46925 20.0043C7.69925 20.0823 7.87925 20.2703 7.94925 20.5123C8.03125 20.7813 7.95325 21.0783 7.75025 21.2783C7.54725 21.4773 7.25025 21.5433 6.98425 21.4533C5.85525 21.2703 4.86725 20.5943 4.28125 19.6063C3.90625 18.8093 3.90625 17.8793 4.28125 17.0823C4.74625 16.0863 5.82825 15.4463 7.50025 15.1023C8.28525 14.9303 9.08225 14.8213 9.88325 14.7663Z" fill="black"/>
</svg>
