<svg width="40" height="40" viewBox="0 0 40 40" fill="none" xmlns="http://www.w3.org/2000/svg">
<rect width="40" height="40" rx="9.80556" fill="#46007C"/>
<path fill-rule="evenodd" clip-rule="evenodd" d="M19.6241 28.1203C18.8764 28.1203 18.2707 27.5147 18.2707 26.767C18.2707 26.0192 18.8764 25.4136 19.6241 25.4136C20.3719 25.4136 20.9775 26.0192 20.9775 26.767C20.9775 27.5147 20.3719 28.1203 19.6241 28.1203ZM29.0969 26.0903H22.2346C21.9307 24.8952 20.8548 24.0602 19.6232 24.0602C18.3916 24.0602 17.3157 24.8952 17.0119 26.0903H10.1495C9.77667 26.0903 9.47284 26.3941 9.47284 26.767C9.47284 27.1398 9.77667 27.4436 10.1495 27.4436H17.0119C17.3157 28.6387 18.3916 29.4737 19.6232 29.4737C20.8548 29.4737 21.9307 28.6387 22.2346 27.4436H29.0969C29.4698 27.4436 29.7736 27.1398 29.7736 26.767C29.7736 26.3941 29.4698 26.0903 29.0969 26.0903ZM26.3917 21.3534C25.6439 21.3534 25.0383 20.7478 25.0383 20C25.0383 19.2523 25.6439 18.6467 26.3917 18.6467C27.1394 18.6467 27.745 19.2523 27.745 20C27.745 20.7478 27.1394 21.3534 26.3917 21.3534ZM29.0969 19.3234H29.0015C28.6977 18.1283 27.6217 17.2933 26.3901 17.2933C25.1586 17.2933 24.0826 18.1283 23.7788 19.3234H10.1495C9.77667 19.3234 9.47284 19.6272 9.47284 20C9.47284 20.3729 9.77667 20.6767 10.1495 20.6767H23.7788C24.0826 21.8718 25.1586 22.7068 26.3901 22.7068C27.6217 22.7068 28.6977 21.8718 29.0015 20.6767H29.0969C29.4698 20.6767 29.7736 20.3729 29.7736 20C29.7736 19.6272 29.4698 19.3234 29.0969 19.3234ZM12.8555 11.8797C13.6033 11.8797 14.2089 12.4854 14.2089 13.2331C14.2089 13.9809 13.6033 14.5865 12.8555 14.5865C12.1078 14.5865 11.5021 13.9809 11.5021 13.2331C11.5021 12.4854 12.1078 11.8797 12.8555 11.8797ZM10.1495 13.9098H10.2449C10.5488 15.1049 11.6247 15.9399 12.8563 15.9399C14.0879 15.9399 15.1638 15.1049 15.4677 13.9098H29.0969C29.4698 13.9098 29.7736 13.606 29.7736 13.2331C29.7736 12.8603 29.4698 12.5564 29.0969 12.5564H15.4677C15.1638 11.3614 14.0879 10.5264 12.8563 10.5264C11.6247 10.5264 10.5488 11.3614 10.2449 12.5564H10.1495C9.77667 12.5564 9.47284 12.8603 9.47284 13.2331C9.47284 13.606 9.77667 13.9098 10.1495 13.9098Z" fill="#E8F1FF"/>
</svg>
