<svg width="21" height="21" viewBox="0 0 21 21" fill="none" xmlns="http://www.w3.org/2000/svg">
<mask id="mask0_1_216" style="mask-type:luminance" maskUnits="userSpaceOnUse" x="0" y="6" width="6" height="10">
<path fill-rule="evenodd" clip-rule="evenodd" d="M0.600098 6.00116H5.03247V15.3389H0.600098V6.00116Z" fill="white"/>
</mask>
<g mask="url(#mask0_1_216)">
<path fill-rule="evenodd" clip-rule="evenodd" d="M5.03248 12.6862L4.33635 15.2852L1.79182 15.3389C1.03146 13.9285 0.600098 12.3148 0.600098 10.6C0.600098 8.94182 1.00338 7.37796 1.71826 6.00116H1.71873L3.98404 6.41632L4.97646 8.66807C4.76881 9.2737 4.65557 9.92358 4.65557 10.6C4.65557 11.3341 4.78865 12.0374 5.03248 12.6862Z" fill="#FBBB00"/>
</g>
<mask id="mask1_1_216" style="mask-type:luminance" maskUnits="userSpaceOnUse" x="10" y="8" width="11" height="11">
<path fill-rule="evenodd" clip-rule="evenodd" d="M10.8198 8.73181H20.5999V18.3983H10.8198V8.73181Z" fill="white"/>
</mask>
<g mask="url(#mask1_1_216)">
<path fill-rule="evenodd" clip-rule="evenodd" d="M20.4252 8.73181C20.5401 9.33666 20.5999 9.9615 20.5999 10.5999C20.5999 11.3159 20.5247 12.0143 20.3813 12.6878C19.8945 14.9801 18.6226 16.9818 16.8604 18.3983L16.8599 18.3978L14.0066 18.2522L13.6027 15.7313C14.772 15.0456 15.6857 13.9724 16.1671 12.6878H10.8198V8.73181H20.4252Z" fill="#518EF8"/>
</g>
<path fill-rule="evenodd" clip-rule="evenodd" d="M16.8597 18.3978L16.8602 18.3983C15.1465 19.7758 12.9695 20.6 10.5998 20.6C6.7915 20.6 3.48049 18.4714 1.7915 15.339L5.03217 12.6863C5.87674 14.94 8.0508 16.5445 10.5998 16.5445C11.6954 16.5445 12.7218 16.2483 13.6026 15.7313L16.8597 18.3978Z" fill="#28B446"/>
<path fill-rule="evenodd" clip-rule="evenodd" d="M16.983 2.90224L13.7435 5.55435C12.832 4.98458 11.7544 4.65544 10.6001 4.65544C7.99346 4.65544 5.77857 6.33345 4.97646 8.66806L1.71873 6.00115H1.71826C3.38252 2.7922 6.73522 0.599976 10.6001 0.599976C13.0264 0.599976 15.2511 1.46423 16.983 2.90224Z" fill="#F14336"/>
</svg>
