<svg width="24" height="24" viewBox="0 0 24 24" fill="none" xmlns="http://www.w3.org/2000/svg">
<path fill-rule="evenodd" clip-rule="evenodd" d="M10.0153 21.7982C9.66846 21.7301 9.44662 21.3933 9.51473 21.049C9.58285 20.7021 9.91968 20.4803 10.2634 20.5484C14.7384 21.422 19.1346 18.713 20.3676 14.3237C21.598 9.93179 19.2496 5.33307 14.9702 3.75392C10.6939 2.17664 5.92149 4.14698 4.00552 8.28452C2.08641 12.4221 3.67056 17.3382 7.64 19.5792C7.93996 19.7529 8.04307 20.136 7.87184 20.4359C7.69874 20.7365 7.31505 20.839 7.01509 20.6678C2.49885 18.0681 0.73348 12.4371 2.96066 7.72523C5.1891 3.01652 10.6596 0.804959 15.5345 2.64782C20.4088 4.48819 23.0528 9.76681 21.6074 14.773C20.1626 19.7798 15.1146 22.8356 10.0078 21.7982H10.0153Z" fill="black"/>
<path fill-rule="evenodd" clip-rule="evenodd" d="M12.0136 5.75074C8.5622 5.75074 5.76447 8.54847 5.76447 11.9999C5.76447 15.4512 8.5622 18.249 12.0136 18.249C15.465 18.249 18.2627 15.4512 18.2627 11.9999C18.2627 8.54847 15.465 5.75074 12.0136 5.75074ZM12.0136 19.4988C7.87105 19.4988 4.51465 16.1424 4.51465 11.9999C4.51465 7.85731 7.87105 4.50092 12.0136 4.50092C16.1561 4.50092 19.5125 7.85731 19.5125 11.9999C19.5125 16.1424 16.1561 19.4988 12.0136 19.4988Z" fill="black"/>
<path fill-rule="evenodd" clip-rule="evenodd" d="M12.0132 16.9991C11.6689 16.9991 11.3883 16.7186 11.3883 16.3742C11.3883 16.0299 11.6689 15.7493 12.0132 15.7493C12.3575 15.7493 12.6381 16.0299 12.6381 16.3742C12.6381 16.7186 12.3575 16.9991 12.0132 16.9991ZM12.0135 14.4995C11.6692 14.4995 11.3886 14.2189 11.3886 13.8746C11.3886 12.9935 11.9185 12.1973 12.7309 11.8561C13.6682 11.4849 14.1444 10.4376 13.8076 9.48771C13.4708 8.53597 12.4428 8.02354 11.4811 8.3235C10.5193 8.62658 9.96814 9.63457 10.2312 10.6063C10.3193 10.9406 10.1169 11.2825 9.78254 11.3674C9.44822 11.4556 9.10639 11.2531 9.02078 10.9188C8.60334 9.30274 9.53071 7.64485 11.1249 7.15429C12.719 6.66124 14.4181 7.50799 14.9843 9.07777C15.5505 10.6475 14.7843 12.3854 13.2439 13.0253C12.8871 13.1572 12.6459 13.494 12.6384 13.8746C12.6384 14.2189 12.3578 14.4995 12.0135 14.4995Z" fill="black"/>
</svg>
