<svg width="14" height="14" viewBox="0 0 14 14" fill="none" xmlns="http://www.w3.org/2000/svg">
<path fill-rule="evenodd" clip-rule="evenodd" d="M9.54545 6.36364H7.63636V4.45455C7.63636 4.1028 7.35175 3.81818 7 3.81818C6.64825 3.81818 6.36364 4.1028 6.36364 4.45455V6.36364H4.45455C4.1028 6.36364 3.81818 6.64825 3.81818 7C3.81818 7.35175 4.1028 7.63636 4.45455 7.63636H6.36364V9.54545C6.36364 9.8972 6.64825 10.1818 7 10.1818C7.35175 10.1818 7.63636 9.8972 7.63636 9.54545V7.63636H9.54545C9.8972 7.63636 10.1818 7.35175 10.1818 7C10.1818 6.64825 9.8972 6.36364 9.54545 6.36364ZM12.728 12.0909C12.728 12.4427 12.4434 12.7273 12.0916 12.7273H1.9098C1.55805 12.7273 1.27344 12.4427 1.27344 12.0909V1.90908C1.27344 1.55733 1.55805 1.27272 1.9098 1.27272H12.0916C12.4434 1.27272 12.728 1.55733 12.728 1.90908V12.0909ZM12.0909 0H1.90909C0.854477 0 0 0.854477 0 1.90909V12.0909C0 13.1455 0.854477 14 1.90909 14H12.0909C13.1455 14 14 13.1455 14 12.0909V1.90909C14 0.854477 13.1455 0 12.0909 0Z" fill="#46007C"/>
</svg>
