<svg width="24" height="24" viewBox="0 0 24 24" fill="none" xmlns="http://www.w3.org/2000/svg">
<path fill-rule="evenodd" clip-rule="evenodd" d="M6.293 8.387C6.48 8.367 6.668 8.422 6.812 8.543L10.969 11.859C11.488 12.269 12.219 12.269 12.738 11.859L16.852 8.543H16.859L16.949 8.484C17.246 8.309 17.633 8.371 17.859 8.648C17.981 8.797 18.031 8.988 18.012 9.176C17.988 9.367 17.895 9.539 17.746 9.656L13.633 12.98C12.586 13.828 11.094 13.828 10.051 12.98L5.926 9.656L5.852 9.582C5.617 9.324 5.602 8.93 5.82 8.648C5.938 8.5 6.109 8.406 6.293 8.387ZM16.195 3C19.398 3.012 21.992 5.621 22 8.844V10.309L21.992 10.402C21.945 10.75 21.652 11.02 21.293 11.02L21.285 11.004L21.172 10.992C21.027 10.969 20.891 10.898 20.781 10.793C20.652 10.66 20.574 10.477 20.574 10.289V8.844C20.551 6.418 18.606 4.457 16.195 4.434H7.805C5.395 4.457 3.449 6.418 3.426 8.844V15.156C3.449 17.582 5.395 19.543 7.805 19.566H16.195C18.606 19.543 20.551 17.582 20.574 15.156C20.617 14.789 20.922 14.512 21.289 14.512C21.652 14.512 21.961 14.789 22 15.156C21.992 18.379 19.398 20.988 16.195 21H7.805C4.602 20.996 2.004 18.379 2 15.156V8.844C2 5.617 4.598 3 7.805 3H16.195Z" fill="black"/>
</svg>
