<svg width="24" height="24" viewBox="0 0 24 24" fill="none" xmlns="http://www.w3.org/2000/svg">
<path fill-rule="evenodd" clip-rule="evenodd" d="M15.1733 16.5L16.4996 12.6048L17.8258 16.5H15.1733ZM17.3185 10.2H15.6822L12.0004 21H13.6367L14.5539 18.3H18.4403L19.364 21H21.0004L17.3185 10.2ZM12.7126 14.763L10.632 12.5031L10.6574 12.4779C12.0835 10.731 13.0964 8.7231 13.6936 6.6H16.0909V4.8H10.3636V3H8.72727V4.8H3V6.5892H12.1407C11.5909 8.3298 10.7245 9.975 9.54545 11.4168C8.78455 10.488 8.15536 9.4719 7.65627 8.4H6.01991C6.618 9.8661 7.43618 11.2548 8.45891 12.5031L4.29109 17.0202L5.45455 18.3L9.54545 13.8L12.0892 16.5981L12.7126 14.763Z" fill="black"/>
</svg>
