<svg width="16" height="16" viewBox="0 0 16 16" fill="none" xmlns="http://www.w3.org/2000/svg">
<path d="M8.47027 7.90008C8.32195 7.96449 8.16197 7.99772 8.00027 7.99772C7.83857 7.99772 7.67859 7.96449 7.53027 7.90008L1.83027 5.26008C1.73771 5.2134 1.65993 5.14194 1.60558 5.05366C1.55124 4.96538 1.52246 4.86375 1.52246 4.76008C1.52246 4.65642 1.55124 4.55479 1.60558 4.46651C1.65993 4.37823 1.73771 4.30677 1.83027 4.26008L7.53027 1.60008C7.67859 1.53568 7.83857 1.50244 8.00027 1.50244C8.16197 1.50244 8.32195 1.53568 8.47027 1.60008L14.1703 4.24008C14.2628 4.28677 14.3406 4.35823 14.395 4.44651C14.4493 4.53479 14.4781 4.63642 14.4781 4.74008C14.4781 4.84375 14.4493 4.94538 14.395 5.03366C14.3406 5.12194 14.2628 5.1934 14.1703 5.24008L8.47027 7.90008Z" stroke="#FFB322" stroke-linecap="round" stroke-linejoin="round"/>
<path d="M14.5 8.3501L8.4 11.1601C8.26972 11.2195 8.12819 11.2503 7.985 11.2503C7.84181 11.2503 7.70028 11.2195 7.57 11.1601L1.5 8.3501" stroke="#FFB322" stroke-linecap="round" stroke-linejoin="round"/>
<path d="M14.5 11.6001L8.4 14.4101C8.26972 14.4695 8.12819 14.5003 7.985 14.5003C7.84181 14.5003 7.70028 14.4695 7.57 14.4101L1.5 11.6001" stroke="#FFB322" stroke-linecap="round" stroke-linejoin="round"/>
</svg>
