<svg width="24" height="24" viewBox="0 0 24 24" fill="none" xmlns="http://www.w3.org/2000/svg">
<path d="M17.3092 2.79234C16.8464 2.49109 16.2269 2.62213 15.9257 3.08502C15.6244 3.54791 15.7554 4.16736 16.2183 4.46861L17.3092 2.79234ZM20.4437 13.628L21.4024 13.9125L21.4024 13.9125L20.4437 13.628ZM3.36864 13.628L2.40995 13.9125L2.40995 13.9125L3.36864 13.628ZM7.59404 4.46861C8.05693 4.16736 8.18796 3.54791 7.88671 3.08502C7.58546 2.62213 6.96601 2.49109 6.50312 2.79234L7.59404 4.46861ZM12.9054 3C12.9054 2.44772 12.4577 2 11.9054 2C11.3531 2 10.9054 2.44772 10.9054 3H12.9054ZM10.9054 10.6912C10.9054 11.2435 11.3531 11.6912 11.9054 11.6912C12.4577 11.6912 12.9054 11.2435 12.9054 10.6912H10.9054ZM16.2183 4.46861C19.1516 6.37762 20.4806 9.98834 19.485 13.3436L21.4024 13.9125C22.6498 9.70849 20.9847 5.18434 17.3092 2.79234L16.2183 4.46861ZM19.485 13.3436C18.4895 16.6986 15.4059 19 11.9062 19V21C16.2913 21 20.155 18.1165 21.4024 13.9125L19.485 13.3436ZM11.9062 19C8.40642 19 5.32287 16.6986 4.32732 13.3436L2.40995 13.9125C3.6574 18.1165 7.52104 21 11.9062 21V19ZM4.32732 13.3436C3.33175 9.98834 4.66072 6.37762 7.59404 4.46861L6.50312 2.79234C2.82766 5.18434 1.16252 9.70849 2.40995 13.9125L4.32732 13.3436ZM10.9054 3V10.6912H12.9054V3H10.9054Z" fill="black"/>
</svg>
