<svg width="79" height="94" viewBox="0 0 79 94" fill="none" xmlns="http://www.w3.org/2000/svg">
<g clip-path="url(#clip0_1_33038)">
<path d="M62.9867 67.3655H17.2505V28.7253L40.2426 31.6653L62.9867 28.7253V67.3655Z" stroke="#231F20" stroke-width="1.85653" stroke-linecap="round" stroke-linejoin="round"/>
<path d="M62.9867 67.319L41.2477 91.9426L40.2426 93.081L17.2505 67.319H62.9867Z" fill="#FFDCB4"/>
<path d="M41.8492 90.9989L41.2477 91.9426L40.2426 93.081L17.2505 67.319H20.5827L20.9583 67.3568L41.8492 90.9989Z" fill="#F1E4FF"/>
<path d="M17.2505 67.319L40.2426 93.081L62.9867 67.319H17.2505Z" stroke="#231F20" stroke-width="1.85653" stroke-linecap="round" stroke-linejoin="round"/>
<path d="M77.5741 9.49322L40.2424 17.7011L1.42725 9.61535L40.6121 0.918945L77.5741 9.49322Z" fill="#282525"/>
<path d="M6.86653 10.687L44.4447 1.98912L41.7259 1.33191L2.53955 10.0283L6.86653 10.687Z" fill="#F1E4FF"/>
<path d="M1.42725 9.61535L40.2424 17.7011L77.5741 9.49322L40.6121 0.918945L1.42725 9.61535Z" stroke="#231F20" stroke-width="1.85653" stroke-linecap="round" stroke-linejoin="round"/>
<path d="M62.9867 12.801V28.7253L40.2426 31.6653L17.2505 28.7253V12.9232L40.2426 17.701L62.9867 12.801Z" fill="#282525"/>
<path d="M31.9599 30.5705L32.0831 67.319H17.2505V28.3647L31.9599 30.5705Z" fill="#9F74D7"/>
<path d="M17.1255 28.1583L20.8347 28.5931V67.6404L17.1255 67.5997V28.1583Z" fill="#F1E4FF"/>
<path d="M32.0831 67.319H17.2505V28.3647L31.9599 30.5705L32.0831 67.319Z" stroke="#231F20" stroke-width="1.85653" stroke-linecap="round" stroke-linejoin="round"/>
<path d="M47.9057 30.9383V67.319H31.9595V30.5704L40.2422 31.6653L47.9057 30.9383Z" fill="#D9C0F6"/>
<path d="M31.9595 30.5704L35.6687 30.9761V67.3568L31.9595 67.319V30.5704Z" fill="#F1E4FF"/>
<path d="M47.9057 67.319H31.9595V30.5704L40.2422 31.6653L47.9057 30.9383V67.319Z" stroke="#231F20" stroke-width="1.9241" stroke-linecap="round" stroke-linejoin="round"/>
<path d="M62.8631 28.4883V67.4411H48.029L47.9058 30.9383L62.8631 28.4883Z" fill="#9F74D7"/>
<path d="M58.6611 28.7704L62.3689 29.192V67.0267L58.6611 66.9875V28.7704Z" fill="#D9C0F6"/>
<path d="M62.8631 67.4411H48.029L47.9058 30.9383L62.8631 28.4883V67.4411Z" stroke="#231F20" stroke-width="1.85653" stroke-linecap="round" stroke-linejoin="round"/>
<path d="M44.9394 87.5311L40.2426 93.0811L35.5444 87.5311H44.9394Z" fill="#231F20"/>
<path d="M35.5444 87.5311H44.9394L40.2426 93.0811L35.5444 87.5311Z" stroke="#231F20" stroke-width="1.85653" stroke-linecap="round" stroke-linejoin="round"/>
<path d="M37.9198 6.18674C37.7239 6.01246 37.4917 5.88304 37.2396 5.80766C36.9876 5.73227 36.7219 5.71277 36.4614 5.75054L8.98236 11.4037C8.74676 11.4606 8.53638 11.5923 8.38328 11.7787C8.23017 11.965 8.14273 12.1959 8.13428 12.4361L8.13428 46.3711C8.13505 46.5984 8.22651 46.8161 8.38869 46.9768C8.55087 47.1376 8.77061 47.2282 8.99997 47.229H9.24794C9.47716 47.2282 9.69675 47.1375 9.85869 46.9768C10.0206 46.816 10.1118 46.5982 10.1122 46.3711L10.1122 13.7868C10.1209 13.5469 10.2085 13.3164 10.3616 13.1303C10.5147 12.9442 10.7249 12.8128 10.9602 12.7559L37.9433 7.23072C38.4099 7.13621 38.5155 6.78434 38.1795 6.45137L37.9198 6.18674Z" fill="#231F20"/>
<path d="M17.3737 16.8882L40.1179 21.4204L62.9867 17.5004V12.801L40.9836 17.2561L17.2505 12.9232L17.3737 16.8882Z" fill="#1E1B1B"/>
<path d="M17.2505 12.9232V28.7253L40.2426 31.6653L62.9867 28.7253V12.801L40.2426 17.701L17.2505 12.9232Z" stroke="#231F20" stroke-width="1.85653" stroke-linecap="round" stroke-linejoin="round"/>
<path d="M11.1652 47.8818C11.1654 48.1392 11.1144 48.3942 11.0151 48.632C10.9157 48.8699 10.7701 49.0861 10.5864 49.2681C10.4027 49.4501 10.1845 49.5945 9.94448 49.6929C9.70443 49.7914 9.44715 49.8419 9.18736 49.8418C8.92762 49.8418 8.67041 49.7911 8.43045 49.6926C8.19048 49.5941 7.97245 49.4497 7.78879 49.2677C7.60512 49.0857 7.45943 48.8696 7.36003 48.6318C7.26063 48.394 7.20947 48.1391 7.20947 47.8818C7.20986 47.362 7.41837 46.8637 7.78921 46.4963C8.16005 46.1288 8.66291 45.9221 9.18736 45.9218C9.71192 45.9218 10.215 46.1283 10.5859 46.4958C10.9569 46.8634 11.1652 47.3619 11.1652 47.8818Z" fill="#231F20"/>
</g>
<defs>
<clipPath id="clip0_1_33038">
<rect width="78" height="94" fill="white" transform="translate(0.5)"/>
</clipPath>
</defs>
</svg>
