<svg width="40" height="40" viewBox="0 0 40 40" fill="none" xmlns="http://www.w3.org/2000/svg">
<circle cx="20" cy="20" r="19" fill="#FFEBEF" stroke="#FC4F72" stroke-width="2"/>
<path fill-rule="evenodd" clip-rule="evenodd" d="M29.7834 15.3777L29.0312 14.6235L22.0558 21.5989C21.1844 22.47 19.7185 22.47 18.8447 21.5989L11.8717 14.664L11.1172 15.4161L16.3097 20.6082L11.1172 25.8004L11.8717 26.5525L17.0615 21.3604L18.093 22.3915C18.7278 23.0264 19.5585 23.3822 20.4299 23.3822C21.3037 23.3822 22.1343 23.0264 22.7695 22.3915L23.7983 21.3604L28.9908 26.5525L29.7426 25.8004L24.5528 20.6082L29.7834 15.3777Z" fill="#FFB322"/>
<path fill-rule="evenodd" clip-rule="evenodd" d="M12.6236 14.4658C12.3062 14.4658 12.07 14.7043 12.07 15.0198V26.1966C12.07 26.512 12.3062 26.7506 12.6236 26.7506H28.2768C28.5947 26.7506 28.8328 26.512 28.8328 26.1966V15.0198C28.8328 14.7043 28.5947 14.4658 28.2768 14.4658H12.6236ZM28.3176 27.899H12.6644C11.7521 27.899 11 27.1469 11 26.235V15.0602C11 14.1483 11.7521 13.3962 12.6644 13.3962H28.3176C29.2291 13.3962 29.9816 14.1483 29.9816 15.0602V26.235C29.9816 27.1469 29.2291 27.899 28.3176 27.899Z" fill="#FFB322"/>
</svg>
