<svg width="60" height="60" viewBox="0 0 60 60" fill="none" xmlns="http://www.w3.org/2000/svg">
<circle cx="30" cy="30" r="30" fill="#E8F1FF"/>
<circle cx="30" cy="30" r="29" stroke="#B4BDC4" stroke-opacity="0.4" stroke-width="2"/>
<path fill-rule="evenodd" clip-rule="evenodd" d="M38.4781 29.8472C37.8951 29.8472 37.4042 30.2305 37.3233 30.7525C36.8058 34.0747 33.5296 36.3438 29.9995 36.3438C26.4708 36.3438 23.1945 34.0849 22.6771 30.7525C22.5948 30.2305 22.0899 29.8472 21.5222 29.8472C20.7914 29.8472 20.2363 30.4342 20.3339 31.0811C20.9769 34.8514 24.4637 37.8311 28.6047 38.4028V41.3073C28.6047 42.0089 29.231 42.5806 29.9995 42.5806C30.7694 42.5806 31.3956 42.0089 31.3956 41.3073V38.4028C35.5255 37.8451 39.0235 34.8514 39.6665 31.0811C39.7641 30.4342 39.2076 29.8472 38.4781 29.8472ZM29.9997 33.6672C32.3163 33.6672 34.1672 31.9609 34.1672 29.8472L34.1853 22.2071C34.1853 20.0934 32.3163 18.3871 29.9997 18.3871C27.6844 18.3871 25.8154 20.0934 25.8154 22.2071V29.8472C25.8154 31.9609 27.6844 33.6672 29.9997 33.6672Z" fill="black"/>
<path d="M20.8066 19.8387L39.3926 42.1419" stroke="black" stroke-width="3" stroke-linecap="round" stroke-linejoin="round"/>
</svg>
