<svg width="14" height="14" viewBox="0 0 14 14" fill="none" xmlns="http://www.w3.org/2000/svg">
<path fill-rule="evenodd" clip-rule="evenodd" d="M9.24997 4.74965C9.00147 4.50179 8.59802 4.50179 8.34952 4.74965L6.99963 6.10017L5.65006 4.75029C5.39933 4.51165 5.00479 4.51674 4.76074 4.76094C4.51654 5.00515 4.51129 5.39969 4.74993 5.65026L6.09997 6.99999L4.74993 8.34972C4.51129 8.60029 4.51654 8.99483 4.76074 9.23903C5.00479 9.48324 5.39933 9.48833 5.65006 9.24969L6.99963 7.89981L8.34952 9.24969C8.59993 9.48833 8.99463 9.48324 9.23883 9.23903C9.48304 8.99483 9.48797 8.60029 9.24933 8.34972L7.89961 6.99999L9.24933 5.65026C9.49799 5.4016 9.49799 4.99894 9.24997 4.74965ZM12.728 12.0909C12.728 12.4427 12.4434 12.7273 12.0916 12.7273H1.9098C1.55821 12.7273 1.27344 12.4427 1.27344 12.0909V1.9091C1.27344 1.55735 1.55821 1.27274 1.9098 1.27274H12.0916C12.4434 1.27274 12.728 1.55735 12.728 1.9091V12.0909ZM12.0909 0H1.90909C0.854636 0 0 0.854477 0 1.90909V12.0909C0 13.1455 0.854636 14 1.90909 14H12.0909C13.1455 14 14 13.1455 14 12.0909V1.90909C14 0.854477 13.1455 0 12.0909 0Z" fill="#FF001E"/>
</svg>
