<svg width="24" height="24" viewBox="0 0 24 24" fill="none" xmlns="http://www.w3.org/2000/svg">
<path fill-rule="evenodd" clip-rule="evenodd" d="M11.4661 2C14.5361 2 17.9791 4.164 18.3681 7.641V9.453C18.5011 10.105 18.8101 10.715 19.2551 11.211C19.2821 11.242 19.3071 11.273 19.3251 11.309C19.7321 11.922 19.9661 12.629 20.0011 13.359L19.9741 13.543C20.0051 14.543 19.6731 15.523 19.0321 16.297C18.2201 17.176 17.1071 17.727 15.9111 17.84C12.9621 18.16 9.98509 18.16 7.04009 17.84C5.86009 17.719 4.76709 17.168 3.97009 16.297C3.32109 15.535 2.97809 14.559 3.00109 13.563V13.438C3.05209 12.688 3.30209 11.961 3.73109 11.336L3.80209 11.246C4.24709 10.746 4.55209 10.141 4.68909 9.488V7.676L4.73509 7.574C4.88809 7.316 5.17709 7.168 5.48109 7.199C5.82109 7.238 6.09909 7.496 6.15309 7.832V9.645V9.742C5.96609 10.652 5.54409 11.496 4.92709 12.188C4.68909 12.566 4.55609 12.996 4.53609 13.438V13.633C4.51709 14.254 4.72409 14.863 5.12209 15.348C5.67309 15.914 6.41109 16.262 7.20009 16.332C10.0521 16.641 12.9321 16.641 15.7861 16.332C16.5991 16.258 17.3541 15.895 17.9071 15.305C18.2861 14.832 18.4821 14.242 18.4661 13.641V13.438C18.4461 12.992 18.3181 12.563 18.0831 12.18C17.4431 11.492 16.9931 10.648 16.7901 9.734C16.7861 9.703 16.7861 9.668 16.7901 9.637V7.816C16.5321 5.16 13.8611 3.512 11.5361 3.512C10.5481 3.512 9.57509 3.762 8.71609 4.242L8.61009 4.297C8.39209 4.383 8.14609 4.367 7.93909 4.25C7.70009 4.109 7.55209 3.852 7.56009 3.578C7.56709 3.301 7.72409 3.051 7.97009 2.926C9.03609 2.324 10.2391 2.008 11.4661 2ZM13.1421 19.57C13.4191 19.32 13.8451 19.305 14.1421 19.551C14.4661 19.816 14.5131 20.297 14.2431 20.617C13.5791 21.48 12.5531 21.988 11.4581 22L11.2391 21.992C10.2311 21.918 9.29809 21.422 8.68109 20.617L8.61409 20.527C8.42309 20.211 8.48509 19.793 8.78209 19.551C9.10609 19.281 9.59109 19.328 9.86009 19.652C9.97809 19.809 10.1181 19.945 10.2781 20.062C10.7001 20.375 11.2311 20.508 11.7511 20.43C12.2751 20.352 12.7431 20.074 13.0571 19.652H13.0641L13.1421 19.57Z" fill="black"/>
</svg>
