<svg width="24" height="24" viewBox="0 0 24 24" fill="none" xmlns="http://www.w3.org/2000/svg">
<path fill-rule="evenodd" clip-rule="evenodd" d="M17.8324 10.625C18.1994 10.625 18.4964 10.93 18.4964 11.309C18.4964 11.684 18.1994 11.988 17.8324 11.988H17.5274C17.1604 11.988 16.8594 11.684 16.8594 11.309C16.8594 10.93 17.1604 10.625 17.5274 10.625H17.8324ZM16.215 2C19.406 2 22 4.656 22 7.918V15.082C22 18.344 19.406 21 16.215 21C15.848 21 15.547 20.695 15.547 20.316C15.547 19.941 15.848 19.637 16.215 19.637C18.668 19.637 20.668 17.594 20.668 15.082V9.363H17.383C16.305 9.367 15.426 10.266 15.426 11.367C15.426 12.473 16.305 13.371 17.383 13.371H18.746C19.117 13.371 19.414 13.68 19.414 14.055C19.414 14.43 19.117 14.738 18.746 14.738H17.383C15.57 14.734 14.094 13.227 14.09 11.367C14.094 9.512 15.57 8 17.383 8H20.668V7.918C20.668 5.406 18.668 3.363 16.215 3.363H7.785C5.805 3.363 4.145 4.699 3.566 6.527H12.355C12.723 6.527 13.02 6.832 13.02 7.211C13.02 7.586 12.723 7.891 12.355 7.891H3.336L3.332 7.918V15.082C3.332 17.594 5.328 19.637 7.785 19.637H12.027C12.395 19.637 12.691 19.941 12.691 20.316C12.691 20.695 12.395 21 12.027 21H7.785C4.594 21 2 18.344 2 15.082V7.918C2 4.656 4.594 2 7.785 2H16.215Z" fill="black"/>
</svg>
