<svg width="22" height="21" viewBox="0 0 22 21" fill="none" xmlns="http://www.w3.org/2000/svg">
<path fill-rule="evenodd" clip-rule="evenodd" d="M3.84098 15.5781L3.31605 17.6243C3.18863 18.1203 3.8969 18.3192 4.02359 17.8256L4.5487 15.7794C4.67539 15.2871 3.96712 15.085 3.84098 15.5781Z" fill="black"/>
<path fill-rule="evenodd" clip-rule="evenodd" d="M6.59736 8.9279C7.68241 7.5665 10.0445 3.0913 11.116 3.0913C11.3917 3.0913 12.2047 3.20825 12.8649 3.42904C8.51188 7.99997 10.9297 5.46843 4.92871 11.7346C4.8363 11.8306 4.8176 11.9662 4.78478 12.0965C4.60785 11.8306 4.44449 11.421 4.62637 10.9439C4.94375 10.1115 6.02385 9.64874 6.59736 8.9279ZM17.2403 -0.0758336L18.6119 1.30525C14.7695 5.31745 16.1303 3.89874 12.2857 7.91249C11.8431 7.93584 10.4793 8.01033 9.45312 8.09718C10.4966 7.00694 8.83359 8.75067 17.2403 -0.0758336ZM14.219 13.7748C14.2754 13.3857 14.1874 12.8926 14.0635 12.5219C14.3027 12.5172 15.5288 13.0871 15.7703 13.1979C15.3484 13.5177 14.7059 13.7514 14.219 13.7748ZM10.8467 13.9457C11.2865 13.5976 11.5823 13.085 11.6732 12.5135L13.2711 12.5301C13.4515 12.9711 13.6112 13.4905 13.4036 13.918C12.8334 15.0142 11.4268 14.9976 10.8467 13.9457ZM7.1388 10.5263C7.22259 11.1678 7.64154 11.9022 8.1221 12.2602L7.58562 12.8197L6.25488 11.4363C7.2842 10.3619 7.01559 10.6363 7.1388 10.5263ZM6.8506 13.587L5.04004 14.0726L5.51491 12.2088L5.73401 11.9797L7.06475 13.3631L6.8506 13.587ZM10.1859 13.4755L10.1851 13.4763H10.1844C9.58412 13.8026 8.84945 13.6467 8.41602 13.1001L9.02198 12.4675C9.25978 12.4804 9.76894 12.4924 10.9249 12.5053C10.8225 12.9258 10.5533 13.2794 10.1859 13.4755ZM21.6351 20.228H0.84663L3.397 10.3852H4.07098C3.55669 11.3367 3.8748 12.3665 4.55869 12.9824L4.16981 14.509C4.09959 14.7888 4.34032 15.0563 4.61461 14.9832L7.09402 14.3183C7.16938 14.3063 7.23868 14.2685 7.2924 14.2127L7.86903 13.6111C8.39542 14.2594 9.27347 14.6207 10.1952 14.3025C10.6493 15.125 11.3563 15.5087 12.1247 15.5087C12.818 15.5087 13.4949 15.1551 13.9052 14.5331C14.9158 14.6537 16.1613 13.9805 16.5086 13.5419C17.5041 14.0039 18.3213 14.5393 21.6309 14.58H21.6344C22.1172 14.58 22.1206 13.814 21.6388 13.808C16.7735 13.7484 16.515 12.2337 14.1687 11.7362L14.1659 11.7354C13.2928 11.5546 10.2713 11.8358 8.95702 11.691C8.24709 11.5108 7.77021 10.7932 7.86261 10.0529V10.0498C7.95649 9.44281 8.32245 9.03057 8.52578 8.97691C8.52578 8.97691 11.9349 8.73412 16.9999 8.15745C17.4819 8.10245 17.4024 7.33722 16.9204 7.3901L13.4483 7.78574C15.1894 5.96733 16.0682 5.04847 16.2535 4.8547C18.0204 5.33121 21.6344 6.65883 21.6344 6.65883C22.0455 6.65883 22.1443 6.048 21.7527 5.90711C20.3717 5.41111 18.7654 4.76573 16.858 4.22283L19.3948 1.57453C19.5631 1.39659 19.5232 1.15071 19.3906 1.02121L17.4884 -0.8937C17.3452 -1.03922 17.1138 -1.03324 16.9763 -0.888489L13.4382 2.82592C12.6146 2.47698 11.4601 2.31931 11.1156 2.31931C9.48616 2.31931 7.31184 6.82906 6.03482 8.43189C5.729 8.81557 5.17822 9.15042 4.6863 9.61322H3.11702C2.95164 9.61322 2.80698 9.73018 2.76316 9.89828L0.012948 20.5131C-0.017121 20.6291 0.00579748 20.7528 0.0752863 20.8485C0.144775 20.9442 0.252217 21 0.366809 21H21.6351C22.1194 21 22.1201 20.228 21.6351 20.228Z" fill="black"/>
</svg>
