<svg width="12" height="13" viewBox="0 0 12 13" fill="none" xmlns="http://www.w3.org/2000/svg">
<path fill-rule="evenodd" clip-rule="evenodd" d="M6.58815 1.17257L7.92435 3.85637C8.02275 4.05077 8.20995 4.18697 8.42775 4.21937L11.426 4.65557C11.6012 4.68137 11.7608 4.77257 11.8664 4.91297C11.9744 5.05397 12.0188 5.22977 11.993 5.40317C11.972 5.54597 11.9036 5.67977 11.801 5.78057L9.62775 7.88537C9.46875 8.03537 9.39615 8.25077 9.43335 8.46377L9.97035 11.4266C10.0286 11.7806 9.79215 12.1154 9.43335 12.188C9.28815 12.2114 9.13815 12.188 9.00675 12.1202L6.33015 10.7258C6.13095 10.625 5.89695 10.625 5.70015 10.7258L3.02355 12.1202C2.69235 12.296 2.28075 12.1742 2.10195 11.8508C2.03475 11.7218 2.01135 11.5742 2.03235 11.4314L2.56815 8.46857C2.60655 8.25797 2.53395 8.03957 2.37435 7.88957L0.201153 5.78717C0.0751531 5.66297 0.00195312 5.49437 0.00195312 5.31857C0.00195312 5.14277 0.0751531 4.97417 0.201153 4.84997C0.304353 4.74677 0.439953 4.67897 0.588153 4.66037L3.58635 4.22417C3.80355 4.19117 3.99075 4.05797 4.08735 3.86117L5.37855 1.17257C5.49075 0.945172 5.72775 0.799972 5.98815 0.804772H6.06795C6.29295 0.832972 6.48975 0.970972 6.58815 1.17257Z" fill="#FCCB40"/>
<path fill-rule="evenodd" clip-rule="evenodd" d="M6.00441 10.6461C5.88681 10.6461 5.77701 10.6857 5.67141 10.7373L3.00441 12.1275C2.68341 12.2889 2.27781 12.1599 2.10201 11.8509C2.03421 11.7243 2.00841 11.5791 2.03181 11.4357L2.56821 8.48065C2.60361 8.26465 2.53101 8.04925 2.37381 7.89685L0.196406 5.79205C-0.0657941 5.53465 -0.0657941 5.11465 0.196406 4.85485C0.299606 4.75405 0.433406 4.68805 0.576206 4.66705L3.58581 4.22425C3.81501 4.19125 3.98181 4.06285 4.08681 3.86125L5.39481 1.14205C5.49321 0.921854 5.82861 0.769454 6.00921 0.804854C6.00441 0.985454 6.00441 10.5267 6.00441 10.6461Z" fill="#FAC025"/>
</svg>
