<svg width="76" height="76" viewBox="0 0 76 76" fill="none" xmlns="http://www.w3.org/2000/svg">
<g filter="url(#filter0_d_1_4750)">
<circle cx="37" cy="36" r="30" fill="#FF001E"/>
</g>
<path fill-rule="evenodd" clip-rule="evenodd" d="M45.5201 39.8441L42.517 39.4976C41.8002 39.4148 41.0847 39.6643 40.5761 40.1718L38.3997 42.3481C35.0418 40.6437 32.3107 37.9126 30.6063 34.5535L32.7921 32.3677C33.2983 31.8603 33.5479 31.1482 33.4663 30.4291L33.1244 27.4472C32.9849 26.2514 31.9724 25.3501 30.773 25.3549H28.7244C27.3843 25.3549 26.2761 26.4632 26.3588 27.7985C26.9845 37.9032 35.0654 45.971 45.1547 46.5943C46.49 46.6771 47.5995 45.5689 47.5995 44.2287V42.1825C47.6137 40.9903 46.7124 39.9825 45.5201 39.8441Z" fill="white"/>
<defs>
<filter id="filter0_d_1_4750" x="0" y="0" width="76" height="76" filterUnits="userSpaceOnUse" color-interpolation-filters="sRGB">
<feFlood flood-opacity="0" result="BackgroundImageFix"/>
<feColorMatrix in="SourceAlpha" type="matrix" values="0 0 0 0 0 0 0 0 0 0 0 0 0 0 0 0 0 0 127 0" result="hardAlpha"/>
<feOffset dx="1" dy="2"/>
<feGaussianBlur stdDeviation="4"/>
<feColorMatrix type="matrix" values="0 0 0 0 0 0 0 0 0 0 0 0 0 0 0 0 0 0 0.3 0"/>
<feBlend mode="normal" in2="BackgroundImageFix" result="effect1_dropShadow_1_4750"/>
<feBlend mode="normal" in="SourceGraphic" in2="effect1_dropShadow_1_4750" result="shape"/>
</filter>
</defs>
</svg>
