<svg width="17" height="20" viewBox="0 0 17 20" fill="none" xmlns="http://www.w3.org/2000/svg">
<path fill-rule="evenodd" clip-rule="evenodd" d="M11.8066 1H5.33969C2.67344 1 1 2.7856 1 5.6548V17.4916C1 18.325 1.68813 19 2.53469 19C2.79063 19 3.04375 18.937 3.27063 18.8173L8.53281 16.012L14.6594 18.8344C14.8244 18.9019 15.0109 18.9019 15.1797 18.8344C15.3438 18.7678 15.4759 18.6382 15.5453 18.4762C15.6484 18.1738 15.5238 17.8435 15.2491 17.6815L9.16281 14.887C8.7625 14.6692 8.28438 14.6692 7.885 14.887L2.61531 17.6815C2.55625 17.713 2.48313 17.713 2.42125 17.6815C2.36594 17.6464 2.33313 17.5834 2.33313 17.5132V5.6548C2.34063 3.5344 3.42438 2.3257 5.36406 2.3257H11.8281C14.3191 2.3257 14.6809 4.312 14.6809 5.5036V6.0445H7.68344C7.50719 6.0517 7.33938 6.1255 7.21469 6.2524C7.09375 6.382 7.03188 6.5512 7.03844 6.7267C7.045 7.075 7.33188 7.3531 7.68344 7.363H14.6594V14.3137C14.6594 14.6755 14.9594 14.9707 15.3297 14.9707C15.6953 14.9707 15.9963 14.6827 16 14.3209V5.5036C16 2.7226 14.3997 1 11.8066 1Z" fill="black"/>
<path d="M11.8066 1H5.33969C2.67344 1 1 2.7856 1 5.6548V17.4916C1 18.325 1.68813 19 2.53469 19C2.79063 19 3.04375 18.937 3.27063 18.8173L8.53281 16.012L14.6594 18.8344C14.8244 18.9019 15.0109 18.9019 15.1797 18.8344C15.3438 18.7678 15.4759 18.6382 15.5453 18.4762C15.6484 18.1738 15.5238 17.8435 15.2491 17.6815L9.16281 14.887C8.7625 14.6692 8.28438 14.6692 7.885 14.887L2.61531 17.6815C2.55625 17.713 2.48313 17.713 2.42125 17.6815C2.36594 17.6464 2.33313 17.5834 2.33313 17.5132V5.6548C2.34063 3.5344 3.42438 2.3257 5.36406 2.3257H11.8281C14.3191 2.3257 14.6809 4.312 14.6809 5.5036V6.0445H7.68344C7.50719 6.0517 7.33938 6.1255 7.21469 6.2524C7.09375 6.382 7.03188 6.5512 7.03844 6.7267C7.045 7.075 7.33188 7.3531 7.68344 7.363H14.6594V14.3137C14.6594 14.6755 14.9594 14.9707 15.3297 14.9707C15.6953 14.9707 15.9963 14.6827 16 14.3209V5.5036C16 2.7226 14.3997 1 11.8066 1" stroke="black" stroke-width="0.6" stroke-linecap="round" stroke-linejoin="round"/>
</svg>
