<svg width="24" height="24" viewBox="0 0 24 24" fill="none" xmlns="http://www.w3.org/2000/svg">
<path fill-rule="evenodd" clip-rule="evenodd" d="M16.9155 17.6182C16.7837 17.6172 16.6567 17.5645 16.563 17.4717L15.1312 16.0362C14.9507 15.839 14.9575 15.5352 15.146 15.3457C15.3345 15.1562 15.6392 15.1495 15.8365 15.3292L16.9155 16.4112L19.1235 14.1992C19.2475 14.0625 19.436 14.006 19.6147 14.0517C19.7935 14.0967 19.932 14.2365 19.977 14.4142C20.022 14.5927 19.9652 14.7822 19.8285 14.9052L17.269 17.4717C17.1752 17.5655 17.0482 17.6182 16.9155 17.6182ZM13.4622 17.675C13.0297 17.883 12.5767 18.044 12.1097 18.1553C12.0307 18.175 11.9487 18.175 11.8707 18.1553C8.95546 17.4455 7.12446 15.2402 6.26621 11.415C6.20646 11.1465 6.37646 10.88 6.64471 10.8212C6.91346 10.7618 7.18021 10.9318 7.23846 11.2005C8.33146 16.0705 10.9672 16.9005 11.9885 17.1553C12.3785 17.0625 12.7562 16.9288 13.1177 16.755C13.1957 17.0743 13.312 17.383 13.4622 17.675ZM20.3335 12.2002C19.605 11.597 18.7035 11.2393 17.7592 11.18C17.9097 10.4755 18.02 9.763 18.0882 9.04525C18.105 8.90825 18.061 8.7715 17.9682 8.67025C17.8802 8.5645 17.7515 8.501 17.6137 8.495C15.4642 8.40525 13.557 7.50975 12.3792 6.03525C12.2817 5.921 12.14 5.8555 11.9897 5.8555C11.8402 5.8555 11.6977 5.921 11.601 6.03525C10.4235 7.50975 8.51696 8.40525 6.36571 8.495C6.08946 8.50575 5.87446 8.73825 5.88621 9.01475C5.89696 9.291 6.12946 9.50575 6.40571 9.495C8.62646 9.40525 10.6275 8.54 11.9897 7.1055C13.3365 8.46975 15.1292 9.30375 17.0395 9.455C16.9672 10.0518 16.8647 10.6445 16.731 11.2305C14.5687 11.6015 12.9887 13.4768 12.9877 15.67C12.9877 16.0352 13.0307 16.3995 13.1177 16.755C13.1967 17.0743 13.312 17.383 13.4622 17.675C13.893 18.543 14.5932 19.2482 15.4585 19.6847C14.3892 20.3252 13.2142 20.7688 11.9897 20.9953C5.82671 19.7853 2.80221 14.42 3.00721 5.04525C3.01021 4.99325 3.04246 4.94725 3.08946 4.92675C3.13621 4.90525 3.19196 4.913 3.23196 4.94525C4.05421 5.4925 5.02396 5.7755 6.01121 5.755C7.87346 5.755 9.39471 4.88475 9.89396 3.54C9.99071 3.23175 10.2697 3.0155 10.5932 3H13.393C13.7142 3.0175 13.9907 3.23275 14.0865 3.54C14.357 4.2305 14.8647 4.80075 15.519 5.1505C16.269 5.56075 17.1137 5.7685 17.9682 5.755C18.9565 5.7755 19.9262 5.4925 20.7485 4.94525C20.772 4.92575 20.8022 4.915 20.8335 4.915C20.9077 4.913 20.9692 4.97075 20.973 5.04525C21.062 7.44725 20.8472 9.8515 20.3335 12.2002ZM17.7992 19.1505C17.6927 19.1642 17.5865 19.171 17.479 19.17C17.1215 19.172 16.766 19.1163 16.4262 19.005C15.5015 18.715 14.7407 18.049 14.3305 17.17C14.1772 16.8625 14.0757 16.5312 14.0307 16.1905C14.0005 16.0188 13.9847 15.8448 13.9857 15.67C13.9867 14.1418 14.978 12.79 16.435 12.3302H16.441C16.7757 12.2238 17.1265 12.17 17.478 12.17H17.524C18.481 12.1827 19.39 12.59 20.0385 13.295C20.3412 13.6173 20.5767 13.9963 20.732 14.4102C20.891 14.8115 20.9722 15.2382 20.9722 15.67C20.9722 17.4757 19.5972 18.9845 17.7992 19.1505ZM21.9712 5.0195C21.9585 4.40225 21.4507 3.9095 20.8325 3.915C20.5952 3.916 20.3627 3.99125 20.1695 4.13C19.515 4.555 18.7485 4.7725 17.9692 4.755C16.8765 4.75 15.4487 4.34475 15.025 3.19525C14.7875 2.4925 14.1352 2.014 13.393 2H10.5932C9.85021 2.014 9.19571 2.49125 8.95646 3.19525C8.53171 4.34475 7.10496 4.755 6.01221 4.755C5.23296 4.7715 4.46621 4.55375 3.81196 4.13C3.61871 3.99125 3.38621 3.916 3.14896 3.915C2.53071 3.9095 2.02296 4.40225 2.01021 5.0195C1.79046 15.005 5.11971 20.715 11.902 21.9953C11.9312 21.999 11.9615 22.001 11.9917 22C12.023 22.001 12.0552 21.999 12.0865 21.9953C13.7367 21.709 15.3032 21.0597 16.6722 20.0947C16.939 20.1455 17.2095 20.17 17.481 20.17C19.9625 20.1642 21.9712 18.1515 21.9722 15.67C21.974 14.7423 21.686 13.837 21.149 13.0802C21.767 10.8095 22.0405 8.12325 21.9712 5.0195Z" fill="black"/>
<path d="M16.563 17.4717L16.4213 17.613L16.4223 17.6139L16.563 17.4717ZM15.1312 16.0362L14.9835 16.1714L14.9896 16.1775L15.1312 16.0362ZM15.8365 15.3292L15.9782 15.1879L15.9712 15.1814L15.8365 15.3292ZM16.9155 16.4112L16.7738 16.5525L16.9154 16.6944L17.057 16.5525L16.9155 16.4112ZM19.1235 14.1992L19.2652 14.3407L19.2716 14.3336L19.1235 14.1992ZM19.6147 14.0517L19.5651 14.2455L19.5659 14.2457L19.6147 14.0517ZM19.977 14.4142L20.1709 14.3654L20.1708 14.3652L19.977 14.4142ZM19.8285 14.9052L19.6945 14.7563L19.6868 14.764L19.8285 14.9052ZM17.269 17.4717L17.4104 17.6132L17.4106 17.613L17.269 17.4717ZM12.1097 18.1553L12.0634 17.9607L12.0612 17.9612L12.1097 18.1553ZM11.8707 18.1553L11.9198 17.9614L11.918 17.9609L11.8707 18.1553ZM6.26621 11.415L6.07098 11.4584L6.07106 11.4588L6.26621 11.415ZM6.64471 10.8212L6.6875 11.0166L6.68794 11.0165L6.64471 10.8212ZM7.23846 11.2005L7.04299 11.2429L7.04331 11.2443L7.23846 11.2005ZM11.9885 17.1553L11.9401 17.3493L11.9873 17.3611L12.0347 17.3498L11.9885 17.1553ZM13.1177 16.755L13.312 16.7075L13.2534 16.4679L13.0311 16.5747L13.1177 16.755ZM17.7592 11.18L17.5636 11.1382L17.5152 11.3651L17.7467 11.3796L17.7592 11.18ZM18.0882 9.04525L17.8896 9.02097L17.8891 9.02632L18.0882 9.04525ZM17.9682 8.67025L17.8143 8.79832L17.8207 8.80535L17.9682 8.67025ZM17.6137 8.495L17.6224 8.29519L17.6221 8.29517L17.6137 8.495ZM12.3792 6.03525L12.5356 5.91036L12.5313 5.90542L12.3792 6.03525ZM11.601 6.03525L11.4483 5.90595L11.4447 5.91045L11.601 6.03525ZM6.36571 8.495L6.37348 8.69485L6.37404 8.69483L6.36571 8.495ZM5.88621 9.01475L6.08606 9.00697L6.08603 9.00626L5.88621 9.01475ZM6.40571 9.495L6.41348 9.69485L6.41378 9.69484L6.40571 9.495ZM11.9897 7.1055L12.132 6.96499L11.9869 6.81799L11.8447 6.96778L11.9897 7.1055ZM17.0395 9.455L17.238 9.47904L17.2631 9.27208L17.0552 9.25562L17.0395 9.455ZM16.731 11.2305L16.7648 11.4276L16.8963 11.4051L16.9259 11.275L16.731 11.2305ZM12.9877 15.67L12.7877 15.6699V15.67H12.9877ZM13.1177 16.755L12.9234 16.8025L12.9236 16.803L13.1177 16.755ZM13.4622 17.675L13.6414 17.5861L13.64 17.5835L13.4622 17.675ZM15.4585 19.6847L15.5612 19.8563L15.8727 19.6697L15.5485 19.5062L15.4585 19.6847ZM11.9897 20.9953L11.9512 21.1915L11.9886 21.1989L12.0261 21.1919L11.9897 20.9953ZM3.00721 5.04525L2.80741 5.03372L2.80726 5.04088L3.00721 5.04525ZM3.08946 4.92675L3.16943 5.11011L3.17302 5.10846L3.08946 4.92675ZM3.23196 4.94525L3.10643 5.10095L3.11354 5.10668L3.12115 5.11175L3.23196 4.94525ZM6.01121 5.755V5.55496L6.00706 5.55504L6.01121 5.755ZM9.89396 3.54L10.0817 3.6097L10.0848 3.59989L9.89396 3.54ZM10.5932 3V2.79977L10.5836 2.80023L10.5932 3ZM13.393 3L13.4039 2.8H13.393V3ZM14.0865 3.54L13.8955 3.5995L13.8976 3.60631L13.9002 3.61295L14.0865 3.54ZM15.519 5.1505L15.6149 4.97503L15.6132 4.97412L15.519 5.1505ZM17.9682 5.755L17.9724 5.55491L17.965 5.55503L17.9682 5.755ZM20.7485 4.94525L20.8593 5.11175L20.8681 5.1059L20.8762 5.09916L20.7485 4.94525ZM20.8335 4.915V5.11507L20.8388 5.11493L20.8335 4.915ZM20.973 5.04525L21.1728 5.03784L21.1727 5.0352L20.973 5.04525ZM17.479 19.17L17.4808 18.97L17.4778 18.97L17.479 19.17ZM16.4262 19.005L16.4885 18.8149L16.4861 18.8142L16.4262 19.005ZM14.3305 17.17L14.5118 17.0854L14.5095 17.0808L14.3305 17.17ZM14.0307 16.1905L14.2292 16.1643L14.2277 16.1558L14.0307 16.1905ZM13.9857 15.67L14.1857 15.6711L14.1857 15.6701L13.9857 15.67ZM16.435 12.3302V12.1302H16.4042L16.3748 12.1395L16.435 12.3302ZM16.441 12.3302V12.5303H16.472L16.5016 12.5208L16.441 12.3302ZM17.524 12.17L17.5266 11.97H17.524V12.17ZM20.0385 13.295L19.8913 13.4304L19.8927 13.4319L20.0385 13.295ZM20.732 14.4102L20.5447 14.4805L20.546 14.4839L20.732 14.4102ZM20.8325 3.915L20.8333 4.115L20.8342 4.11499L20.8325 3.915ZM20.1695 4.13L20.2785 4.29792L20.2861 4.29246L20.1695 4.13ZM17.9692 4.755L17.9737 4.55502L17.9701 4.555L17.9692 4.755ZM15.025 3.19525L14.8354 3.25931L14.8373 3.26443L15.025 3.19525ZM13.393 2L13.3967 1.8H13.393V2ZM10.5932 2V1.79996L10.5894 1.80004L10.5932 2ZM8.95646 3.19525L9.14412 3.26459L9.14582 3.2596L8.95646 3.19525ZM6.01221 4.755V4.55496L6.00797 4.55504L6.01221 4.755ZM3.81196 4.13L3.69518 4.29265L3.70323 4.29787L3.81196 4.13ZM3.14896 3.915L3.14718 4.11499L3.14811 4.115L3.14896 3.915ZM2.01021 5.0195L2.21016 5.0239L2.21017 5.02363L2.01021 5.0195ZM11.902 21.9953L11.8648 22.1921L11.8765 22.1936L11.902 21.9953ZM11.9917 22L11.9981 21.7997L11.9851 21.8001L11.9917 22ZM12.0865 21.9953L12.1103 22.1941L12.1206 22.1923L12.0865 21.9953ZM16.6722 20.0947L16.7096 19.8983L16.6263 19.8824L16.557 19.9313L16.6722 20.0947ZM17.481 20.17V20.37L17.4814 20.37L17.481 20.17ZM21.9722 15.67L21.7722 15.6696V15.6699L21.9722 15.67ZM21.149 13.0802L20.956 13.0277L20.9312 13.1189L20.9859 13.196L21.149 13.0802ZM16.917 17.4183C16.8374 17.4177 16.7603 17.3857 16.7036 17.3296L16.4223 17.6139C16.5531 17.7433 16.73 17.8168 16.9139 17.8182L16.917 17.4183ZM16.7046 17.3305L15.2728 15.895L14.9896 16.1775L16.4214 17.613L16.7046 17.3305ZM15.2788 15.9012C15.1706 15.783 15.1744 15.6008 15.2878 15.4868L15.0042 15.2047C14.7405 15.4697 14.7309 15.895 14.9837 16.1713L15.2788 15.9012ZM15.2878 15.4868C15.4005 15.3735 15.5833 15.3691 15.7017 15.4771L15.9712 15.1814C15.6951 14.9299 15.2685 14.939 15.0042 15.2047L15.2878 15.4868ZM15.6948 15.4705L16.7738 16.5525L17.0571 16.27L15.9781 15.188L15.6948 15.4705ZM17.057 16.5525L19.265 14.3405L18.9819 14.058L16.7739 16.27L17.057 16.5525ZM19.2716 14.3336C19.3457 14.2518 19.4581 14.2181 19.5651 14.2455L19.6643 13.858C19.4138 13.7939 19.1492 13.8732 18.9753 14.0649L19.2716 14.3336ZM19.5659 14.2457C19.6727 14.2726 19.756 14.3562 19.7831 14.4633L20.1708 14.3652C20.108 14.1168 19.9142 13.9209 19.6635 13.8578L19.5659 14.2457ZM19.783 14.4631C19.8101 14.5705 19.7757 14.6837 19.6947 14.7565L19.9622 15.0539C20.1547 14.8808 20.2338 14.615 20.1709 14.3654L19.783 14.4631ZM19.6868 14.764L17.1273 17.3305L17.4106 17.613L19.9701 15.0465L19.6868 14.764ZM17.1275 17.3303C17.0712 17.3867 16.9951 17.4183 16.9155 17.4183V17.8182C17.1014 17.8182 17.2792 17.7443 17.4104 17.6132L17.1275 17.3303ZM13.3755 17.4948C12.9559 17.6966 12.5164 17.8528 12.0634 17.9607L12.1561 18.3498C12.637 18.2352 13.1035 18.0694 13.5489 17.8552L13.3755 17.4948ZM12.0612 17.9612C12.0138 17.9731 11.9654 17.9729 11.9198 17.9614L11.8216 18.3491C11.932 18.3771 12.0476 18.3769 12.1582 18.3493L12.0612 17.9612ZM11.918 17.9609C10.5004 17.6158 9.35178 16.9094 8.45089 15.8256C7.54763 14.7389 6.88592 13.2635 6.46136 11.3712L6.07106 11.4588C6.50475 13.3918 7.18766 14.9316 8.14328 16.0813C9.10126 17.2338 10.3258 17.985 11.8234 18.3496L11.918 17.9609ZM6.46143 11.3716C6.42569 11.2109 6.52759 11.0516 6.6875 11.0166L6.60192 10.6259C6.22533 10.7084 5.98722 11.0821 6.07098 11.4584L6.46143 11.3716ZM6.68794 11.0165C6.84911 10.9808 7.00835 11.083 7.043 11.2429L7.43392 11.1581C7.35207 10.7805 6.97781 10.5427 6.60148 10.626L6.68794 11.0165ZM7.04331 11.2443C7.59706 13.7116 8.54662 15.1754 9.50506 16.0559C10.4633 16.9362 11.4143 17.2182 11.9401 17.3493L12.0369 16.9612C11.5413 16.8376 10.6638 16.5772 9.77567 15.7613C8.88767 14.9456 7.97285 13.5594 7.4336 11.1567L7.04331 11.2443ZM12.0347 17.3498C12.4386 17.2538 12.8299 17.1152 13.2043 16.9353L13.0311 16.5747C12.6825 16.7423 12.3183 16.8712 11.9422 16.9607L12.0347 17.3498ZM12.9234 16.8025C13.0052 17.1373 13.1271 17.4608 13.2844 17.7665L13.64 17.5835C13.4968 17.3052 13.3862 17.0112 13.312 16.7075L12.9234 16.8025ZM20.461 12.0462C19.7 11.416 18.7583 11.0423 17.7717 10.9804L17.7467 11.3796C18.6487 11.4362 19.5099 11.778 20.2059 12.3543L20.461 12.0462ZM17.9548 11.2218C18.1069 10.5099 18.2183 9.78972 18.2873 9.06418L17.8891 9.02632C17.8216 9.73628 17.7125 10.4411 17.5636 11.1382L17.9548 11.2218ZM18.2867 9.06952C18.3106 8.87445 18.2479 8.67948 18.1157 8.53515L17.8207 8.80535C17.874 8.86352 17.8993 8.94205 17.8897 9.02098L18.2867 9.06952ZM18.1219 8.54232C17.9977 8.39296 17.8161 8.30363 17.6224 8.29519L17.605 8.69481C17.6868 8.69837 17.7628 8.73604 17.8145 8.79818L18.1219 8.54232ZM17.6221 8.29517C15.5213 8.20746 13.6718 7.33304 12.5355 5.91043L12.2229 6.16007C13.4421 7.68646 15.4071 8.60304 17.6054 8.69483L17.6221 8.29517ZM12.5313 5.90542C12.3959 5.74672 12.1986 5.6555 11.9897 5.6555V6.0555C12.0813 6.0555 12.1675 6.09528 12.2271 6.16508L12.5313 5.90542ZM11.9897 5.6555C11.7819 5.6555 11.5834 5.74652 11.4483 5.906L11.7536 6.1645C11.812 6.09548 11.8985 6.0555 11.9897 6.0555V5.6555ZM11.4447 5.91045C10.3086 7.33304 8.45988 8.20746 6.35737 8.29517L6.37404 8.69483C8.57404 8.60304 10.5383 7.68646 11.7572 6.16005L11.4447 5.91045ZM6.35793 8.29515C5.97133 8.3102 5.66992 8.63581 5.68639 9.02324L6.08603 9.00626C6.07899 8.84069 6.20759 8.7013 6.37348 8.69485L6.35793 8.29515ZM5.68636 9.02253C5.70141 9.40933 6.02704 9.70989 6.41348 9.69485L6.39793 9.29515C6.23187 9.30161 6.0925 9.17267 6.08606 9.00697L5.68636 9.02253ZM6.41378 9.69484C8.68049 9.60323 10.7327 8.71962 12.1347 7.24322L11.8447 6.96778C10.5222 8.36038 8.57242 9.20727 6.39763 9.29516L6.41378 9.69484ZM11.8474 7.24601C13.2279 8.64443 15.0655 9.49933 17.0237 9.65438L17.0552 9.25562C15.1929 9.10817 13.4451 8.29507 12.132 6.96499L11.8474 7.24601ZM16.8409 9.43096C16.7695 10.021 16.6681 10.6069 16.536 11.186L16.9259 11.275C17.0613 10.6821 17.1649 10.0825 17.238 9.47904L16.8409 9.43096ZM16.6971 11.0334C14.4388 11.4209 12.7888 13.3794 12.7877 15.6699L13.1877 15.6701C13.1887 13.5741 14.6986 11.7821 16.7648 11.4276L16.6971 11.0334ZM12.7877 15.67C12.7877 16.0509 12.8326 16.4312 12.9234 16.8025L13.312 16.7075C13.2289 16.3678 13.1877 16.0196 13.1877 15.67H12.7877ZM12.9236 16.803C13.0062 17.1371 13.1269 17.4605 13.2844 17.7665L13.64 17.5835C13.497 17.3055 13.3872 17.0114 13.3119 16.707L12.9236 16.803ZM13.2831 17.7639C13.733 18.6706 14.4645 19.4073 15.3684 19.8633L15.5485 19.5062C14.7219 19.0892 14.0529 18.4154 13.6414 17.5861L13.2831 17.7639ZM15.3557 19.5132C14.3069 20.1414 13.1544 20.5764 11.9533 20.7986L12.0261 21.1919C13.274 20.9611 14.4715 20.5091 15.5612 19.8563L15.3557 19.5132ZM12.0282 20.799C9.00259 20.205 6.7561 18.5959 5.28471 15.9839C3.80838 13.363 3.10506 9.71855 3.20716 5.04962L2.80726 5.04088C2.70435 9.7467 3.41079 13.4722 4.9362 16.1802C6.46657 18.8969 8.81383 20.5755 11.9512 21.1915L12.0282 20.799ZM3.20688 5.05677C3.20554 5.07986 3.19165 5.10037 3.16942 5.11007L3.0095 4.74343C2.89327 4.79413 2.81487 4.90664 2.80754 5.03373L3.20688 5.05677ZM3.17302 5.10846C3.14855 5.11971 3.1236 5.11479 3.10643 5.10095L3.35749 4.78955C3.26032 4.71121 3.12386 4.69079 3.00589 4.74504L3.17302 5.10846ZM3.12115 5.11175C3.97731 5.68157 4.98716 5.97631 6.01536 5.95496L6.00706 5.55504C5.06075 5.57469 4.1311 5.30343 3.34277 4.77875L3.12115 5.11175ZM6.01121 5.955C7.92639 5.955 9.54371 5.05804 10.0815 3.60961L9.70646 3.47039C9.24571 4.71146 7.82053 5.555 6.01121 5.555V5.955ZM10.0848 3.59989C10.1565 3.3714 10.3633 3.21124 10.6028 3.19977L10.5836 2.80023C10.1761 2.81976 9.82492 3.0921 9.70314 3.48011L10.0848 3.59989ZM10.5932 3.2H13.393V2.8H10.5932V3.2ZM13.3821 3.1997C13.6199 3.21266 13.8246 3.37201 13.8955 3.5995L14.2774 3.4805C14.1568 3.09349 13.8085 2.82234 13.4038 2.8003L13.3821 3.1997ZM13.9002 3.61295C14.1881 4.3479 14.7286 4.95476 15.4247 5.32688L15.6132 4.97412C15.0008 4.64674 14.5258 4.1131 14.2727 3.46705L13.9002 3.61295ZM15.423 5.32597C16.2035 5.75291 17.0824 5.96902 17.9714 5.95498L17.965 5.55503C17.145 5.56798 16.3344 5.36859 15.6149 4.97503L15.423 5.32597ZM17.9641 5.95496C18.9932 5.97631 20.0031 5.68158 20.8593 5.11175L20.6376 4.77875C19.8493 5.30342 18.9197 5.57469 17.9724 5.55504L17.9641 5.95496ZM20.8762 5.09916C20.8628 5.11026 20.8476 5.115 20.8335 5.115V4.715C20.7569 4.715 20.6811 4.74124 20.6207 4.79134L20.8762 5.09916ZM20.8388 5.11493C20.8026 5.1159 20.7748 5.08736 20.7732 5.0553L21.1727 5.0352C21.1636 4.85414 21.0128 4.7101 20.8281 4.71507L20.8388 5.11493ZM20.7731 5.05266C20.8615 7.43783 20.6482 9.82523 20.1381 12.1575L20.5288 12.243C21.0462 9.87777 21.2624 7.45667 21.1728 5.03784L20.7731 5.05266ZM17.7736 18.9521C17.6757 18.9648 17.5786 18.9709 17.4808 18.97L17.4771 19.37C17.5943 19.3711 17.7097 19.3637 17.8248 19.3489L17.7736 18.9521ZM17.4778 18.97C17.1419 18.9719 16.8078 18.9195 16.4884 18.8149L16.364 19.1951C16.7242 19.313 17.101 19.3721 17.4801 19.37L17.4778 18.97ZM16.4861 18.8142C15.6149 18.541 14.8982 17.9136 14.5117 17.0854L14.1492 17.2546C14.5832 18.1844 15.388 18.889 16.3664 19.1958L16.4861 18.8142ZM14.5095 17.0808C14.366 16.793 14.2711 16.4831 14.229 16.1643L13.8324 16.2167C13.8803 16.5794 13.9884 16.932 14.1515 17.2592L14.5095 17.0808ZM14.2277 16.1558C14.1994 15.9951 14.1848 15.8331 14.1857 15.6711L13.7857 15.6689C13.7846 15.8564 13.8015 16.0424 13.8337 16.2252L14.2277 16.1558ZM14.1857 15.6701C14.1867 14.2291 15.1214 12.9545 16.4951 12.521L16.3748 12.1395C14.8345 12.6255 13.7868 14.0544 13.7857 15.6699L14.1857 15.6701ZM16.435 12.5303H16.441V12.1302H16.435V12.5303ZM16.5016 12.5208C16.8165 12.4207 17.1468 12.37 17.478 12.37V11.97C17.1062 11.97 16.7349 12.0268 16.3803 12.1397L16.5016 12.5208ZM17.478 12.37H17.524V11.97H17.478V12.37ZM17.5213 12.37C18.4231 12.382 19.2799 12.7658 19.8913 13.4304L20.1857 13.1596C19.5 12.4142 18.5388 11.9835 17.5266 11.97L17.5213 12.37ZM19.8927 13.4319C20.1773 13.7349 20.3987 14.0912 20.5447 14.4805L20.9192 14.34C20.7547 13.9013 20.5051 13.4996 20.1842 13.1581L19.8927 13.4319ZM20.546 14.4839C20.6957 14.8617 20.7722 15.2634 20.7722 15.67H21.1722C21.1722 15.2131 21.0862 14.7613 20.9179 14.3366L20.546 14.4839ZM20.7722 15.67C20.7722 17.3725 19.4759 18.7949 17.7808 18.9513L17.8176 19.3497C19.7186 19.1741 21.1722 17.579 21.1722 15.67H20.7722ZM22.1712 5.01537C22.1562 4.28845 21.5583 3.70853 20.8307 3.71501L20.8342 4.11499C21.3431 4.11047 21.7608 4.51605 21.7713 5.02363L22.1712 5.01537ZM20.8316 3.715C20.5528 3.71618 20.2798 3.80454 20.0528 3.96754L20.2861 4.29246C20.4456 4.17796 20.6376 4.11582 20.8333 4.115L20.8316 3.715ZM20.0605 3.96226C19.4398 4.36537 18.7128 4.57165 17.9737 4.55505L17.9647 4.95495C18.7841 4.97335 19.5902 4.74463 20.2784 4.29774L20.0605 3.96226ZM17.9701 4.555C17.445 4.5526 16.8437 4.4536 16.3282 4.22189C15.8135 3.99055 15.4003 3.63509 15.2126 3.12607L14.8373 3.26443C15.0734 3.90491 15.5859 4.32683 16.1642 4.58673C16.7417 4.84627 17.4006 4.9524 17.9683 4.955L17.9701 4.555ZM15.2144 3.13122C14.95 2.34866 14.2235 1.81563 13.3967 1.80004L13.3892 2.19996C14.0469 2.21237 14.625 2.63634 14.8355 3.25928L15.2144 3.13122ZM13.393 1.8H10.5932V2.2H13.393V1.8ZM10.5894 1.80004C9.76234 1.81562 9.03351 2.34696 8.76709 3.1309L9.14582 3.2596C9.35791 2.63554 9.93808 2.21238 10.597 2.19996L10.5894 1.80004ZM8.76886 3.12593C8.58065 3.63526 8.16716 3.99196 7.65265 4.22385C7.13734 4.4561 6.5366 4.555 6.01221 4.555V4.955C6.58057 4.955 7.23958 4.84877 7.81701 4.58852C8.39526 4.32791 8.90751 3.90474 9.14406 3.26457L8.76886 3.12593ZM6.00797 4.55504C5.26873 4.5707 4.54133 4.36412 3.92068 3.96213L3.70323 4.29787C4.39109 4.74338 5.19719 4.9723 6.01644 4.95496L6.00797 4.55504ZM3.9286 3.96754C3.70159 3.80454 3.42861 3.71618 3.1498 3.715L3.14811 4.115C3.34381 4.11582 3.53583 4.17796 3.69531 4.29246L3.9286 3.96754ZM3.15074 3.71501C2.4231 3.70853 1.82527 4.28845 1.81025 5.01537L2.21017 5.02363C2.22065 4.51605 2.63831 4.11047 3.14718 4.11499L3.15074 3.71501ZM1.81026 5.0151C1.69996 10.0271 2.47912 13.9926 4.15754 16.8725C5.84092 19.7611 8.41987 21.5415 11.8649 22.1918L11.9391 21.7987C8.6018 21.1688 6.12499 19.4541 4.50313 16.6711C2.8763 13.8797 2.10071 9.99741 2.21016 5.0239L1.81026 5.0151ZM11.8765 22.1936C11.9139 22.1984 11.9551 22.2013 11.9983 22.1999L11.9851 21.8001C11.9678 21.8007 11.9485 21.7996 11.9274 21.7969L11.8765 22.1936ZM11.9853 22.1999C12.029 22.2013 12.0717 22.1985 12.1103 22.1938L12.0626 21.7967C12.0388 21.7995 12.0169 21.8007 11.9981 21.8001L11.9853 22.1999ZM12.1206 22.1923C13.8001 21.901 15.3942 21.2403 16.7874 20.2582L16.557 19.9313C15.2122 20.8792 13.6734 21.517 12.0523 21.7982L12.1206 22.1923ZM16.6348 20.2912C16.9144 20.3444 17.1974 20.37 17.481 20.37V19.97C17.2215 19.97 16.9635 19.9466 16.7096 19.8983L16.6348 20.2912ZM17.4814 20.37C20.0732 20.364 22.1712 18.2618 22.1722 15.6701L21.7722 15.6699C21.7713 18.0412 19.8517 19.9645 17.4805 19.97L17.4814 20.37ZM22.1722 15.6704C22.174 14.701 21.8731 13.7551 21.3121 12.9645L20.9859 13.196C21.4988 13.9189 21.7739 14.7835 21.7722 15.6696L22.1722 15.6704ZM21.3419 13.1328C21.9663 10.8386 22.2407 8.13223 22.1712 5.01504L21.7713 5.02396C21.8402 8.11427 21.5676 10.7804 20.956 13.0277L21.3419 13.1328Z" fill="black"/>
</svg>
