<svg width="31" height="30" viewBox="0 0 31 30" fill="none" xmlns="http://www.w3.org/2000/svg">
<circle cx="15.373" cy="15" r="14.738" fill="white" stroke="#EEEEEE" stroke-width="0.524"/>
<path d="M13.6655 9.76925L14.1774 8.44782C14.2637 8.22408 14.4156 8.03164 14.6132 7.89569C14.8107 7.75974 15.0448 7.68662 15.2846 7.68591H16.2608C16.5006 7.68662 16.7346 7.75974 16.9321 7.89569C17.1297 8.03164 17.2816 8.22408 17.3679 8.44782L17.8798 9.76925L19.6179 10.7692L21.0227 10.555C21.2566 10.5232 21.4946 10.5617 21.7066 10.6656C21.9186 10.7695 22.0949 10.934 22.2131 11.1383L22.6893 11.9716C22.8113 12.1792 22.8676 12.4189 22.8506 12.659C22.8336 12.8992 22.7441 13.1286 22.5941 13.3169L21.725 14.424V16.424L22.6179 17.5312C22.7679 17.7194 22.8574 17.9488 22.8744 18.189C22.8914 18.4292 22.8352 18.6688 22.7131 18.8764L22.2369 19.7097C22.1187 19.914 21.9424 20.0786 21.7304 20.1824C21.5184 20.2863 21.2804 20.3248 21.0465 20.2931L19.6417 20.0788L17.9036 21.0788L17.3917 22.4002C17.3054 22.6239 17.1535 22.8164 16.9559 22.9523C16.7584 23.0883 16.5244 23.1614 16.2846 23.1621H15.2846C15.0448 23.1614 14.8107 23.0883 14.6132 22.9523C14.4156 22.8164 14.2637 22.6239 14.1774 22.4002L13.6655 21.0788L11.9274 20.0788L10.5227 20.2931C10.2887 20.3248 10.0507 20.2863 9.83871 20.1824C9.62673 20.0786 9.45042 19.914 9.33218 19.7097L8.85599 18.8764C8.73397 18.6688 8.67775 18.4292 8.69475 18.189C8.71175 17.9488 8.80118 17.7194 8.95123 17.5312L9.82028 16.424V14.424L8.92742 13.3169C8.77737 13.1286 8.68794 12.8992 8.67094 12.659C8.65394 12.4189 8.71016 12.1792 8.83218 11.9716L9.30837 11.1383C9.42661 10.934 9.60292 10.7695 9.8149 10.6656C10.0269 10.5617 10.2649 10.5232 10.4988 10.555L11.9036 10.7692L13.6655 9.76925ZM13.3917 15.424C13.3917 15.8949 13.5313 16.3552 13.793 16.7468C14.0546 17.1383 14.4264 17.4435 14.8615 17.6237C15.2966 17.8039 15.7753 17.8511 16.2372 17.7592C16.699 17.6673 17.1233 17.4406 17.4562 17.1076C17.7892 16.7746 18.016 16.3504 18.1079 15.8885C18.1997 15.4267 18.1526 14.9479 17.9724 14.5129C17.7922 14.0778 17.487 13.7059 17.0954 13.4443C16.7039 13.1827 16.2436 13.0431 15.7727 13.0431C15.1412 13.0431 14.5356 13.2939 14.0891 13.7404C13.6426 14.1869 13.3917 14.7925 13.3917 15.424V15.424Z" stroke="black" stroke-width="1.048" stroke-linecap="round" stroke-linejoin="round"/>
</svg>
