<svg width="24" height="24" viewBox="0 0 24 24" fill="none" xmlns="http://www.w3.org/2000/svg">
<path fill-rule="evenodd" clip-rule="evenodd" d="M13.1658 10.9452C13.1605 11.3009 12.9743 11.6328 12.6601 11.8287V13.5296C12.6601 13.8753 12.3657 14.1536 12 14.1536C11.6343 14.1536 11.3399 13.8753 11.3399 13.5296V11.8287C11.0257 11.6328 10.8395 11.3009 10.8342 10.9452C10.8342 10.3362 11.3557 9.84328 12 9.84328C12.6443 9.84328 13.1658 10.3362 13.1658 10.9452ZM18.473 13.3C18.0651 15.9469 14.9137 18.2817 13.0773 19.4423C12.4225 19.8566 11.5775 19.8566 10.9227 19.4423C9.08628 18.2817 5.93492 15.9469 5.53358 13.3736L5.32102 7.22764C5.31178 6.94811 5.49661 6.69977 5.78046 6.61242C7.81755 6.05085 9.78203 5.29087 11.6488 4.33995C11.8653 4.20892 12.1347 4.20892 12.3512 4.33995C14.218 5.29087 16.1877 6.05085 18.2248 6.61242C18.5034 6.69977 18.6895 6.94811 18.679 7.22764L18.473 13.3ZM18.6169 5.4219C16.6828 4.89153 14.816 4.17024 13.0364 3.27797C12.4027 2.90734 11.5973 2.90734 10.9636 3.27797C9.18398 4.17024 7.31719 4.89153 5.38307 5.4219C4.53813 5.67648 3.97572 6.43147 4.00081 7.27007L4.21732 13.481C4.70844 16.6058 8.16873 19.2089 10.1953 20.4806C11.2884 21.1731 12.7116 21.1731 13.8047 20.4806C15.8326 19.2089 19.2929 16.6058 19.788 13.4123L19.9992 7.27007C20.0243 6.43147 19.4632 5.67648 18.6169 5.4219Z" fill="black"/>
</svg>
