<svg width="76" height="76" viewBox="0 0 76 76" fill="none" xmlns="http://www.w3.org/2000/svg">
<g filter="url(#filter0_d_1_4753)">
<circle cx="37" cy="36" r="30" fill="#0961F5"/>
</g>
<path d="M27.0616 25.6155C26.6711 25.2249 26.0379 25.2249 25.6474 25.6155C25.2569 26.006 25.2569 26.6392 25.6474 27.0297L27.0616 25.6155ZM46.9377 48.32C47.3282 48.7105 47.9614 48.7105 48.3519 48.32C48.7424 47.9295 48.7424 47.2963 48.3519 46.9058L46.9377 48.32ZM35.703 29.1935C35.1507 29.1935 34.703 29.6413 34.703 30.1935C34.703 30.7458 35.1507 31.1935 35.703 31.1935V29.1935ZM40.8708 35.3613H39.8708C39.8708 35.6265 39.9761 35.8809 40.1637 36.0684L40.8708 35.3613ZM41.8385 36.329L41.1314 37.0361C41.4787 37.3834 42.0267 37.4271 42.4246 37.1393L41.8385 36.329ZM47.645 32.129H48.645C48.645 31.7534 48.4344 31.4094 48.0999 31.2385C47.7654 31.0676 47.3633 31.0986 47.0589 31.3188L47.645 32.129ZM46.645 41.8064C46.645 42.3587 47.0927 42.8064 47.645 42.8064C48.1973 42.8064 48.645 42.3587 48.645 41.8064H46.645ZM41.8706 40.8387C41.8706 40.2864 41.4229 39.8387 40.8706 39.8387C40.3183 39.8387 39.8706 40.2864 39.8706 40.8387H41.8706ZM30.2255 31.1935C30.7777 31.1935 31.2255 30.7458 31.2255 30.1935C31.2255 29.6413 30.7777 29.1935 30.2255 29.1935V31.1935ZM25.6474 27.0297L46.9377 48.32L48.3519 46.9058L27.0616 25.6155L25.6474 27.0297ZM35.703 31.1935H38.9353V29.1935H35.703V31.1935ZM38.9353 31.1935C39.4524 31.1935 39.8708 31.612 39.8708 32.129H41.8708C41.8708 30.5074 40.5569 29.1935 38.9353 29.1935V31.1935ZM39.8708 32.129V35.3613H41.8708V32.129H39.8708ZM40.1637 36.0684L41.1314 37.0361L42.5456 35.6219L41.5779 34.6542L40.1637 36.0684ZM42.4246 37.1393L48.231 32.9393L47.0589 31.3188L41.2524 35.5188L42.4246 37.1393ZM46.645 32.129V41.8064H48.645V32.129H46.645ZM39.8706 40.8387V41.8064H41.8706V40.8387H39.8706ZM39.8706 41.8064C39.8706 42.3235 39.4522 42.7419 38.9351 42.7419V44.7419C40.5568 44.7419 41.8706 43.4281 41.8706 41.8064H39.8706ZM38.9351 42.7419H28.29V44.7419H38.9351V42.7419ZM28.29 42.7419C27.7729 42.7419 27.3545 42.3235 27.3545 41.8064H25.3545C25.3545 43.4281 26.6683 44.7419 28.29 44.7419V42.7419ZM27.3545 41.8064V32.129H25.3545V41.8064H27.3545ZM27.3545 32.129C27.3545 31.612 27.7729 31.1935 28.29 31.1935V29.1935C26.6683 29.1935 25.3545 30.5074 25.3545 32.129H27.3545ZM28.29 31.1935H30.2255V29.1935H28.29V31.1935Z" fill="white"/>
<defs>
<filter id="filter0_d_1_4753" x="0" y="0" width="76" height="76" filterUnits="userSpaceOnUse" color-interpolation-filters="sRGB">
<feFlood flood-opacity="0" result="BackgroundImageFix"/>
<feColorMatrix in="SourceAlpha" type="matrix" values="0 0 0 0 0 0 0 0 0 0 0 0 0 0 0 0 0 0 127 0" result="hardAlpha"/>
<feOffset dx="1" dy="2"/>
<feGaussianBlur stdDeviation="4"/>
<feColorMatrix type="matrix" values="0 0 0 0 0 0 0 0 0 0 0 0 0 0 0 0 0 0 0.3 0"/>
<feBlend mode="normal" in2="BackgroundImageFix" result="effect1_dropShadow_1_4753"/>
<feBlend mode="normal" in="SourceGraphic" in2="effect1_dropShadow_1_4753" result="shape"/>
</filter>
</defs>
</svg>
