<svg width="34" height="11" viewBox="0 0 34 11" fill="none" xmlns="http://www.w3.org/2000/svg">
<path d="M14.7617 10.7391H12.0148L13.7316 0.188525H16.4787L14.7617 10.7391ZM9.70396 0.188525L7.08521 7.44532L6.77533 5.88265L6.77561 5.88321L5.85133 1.13849C5.85133 1.13849 5.73957 0.188525 4.54831 0.188525H0.219013L0.168213 0.367171C0.168213 0.367171 1.49212 0.642621 3.04152 1.57311L5.428 10.7394H8.29002L12.6602 0.188525H9.70396ZM31.3095 10.7391H33.8317L31.6327 0.188243H29.4246C28.4049 0.188243 28.1565 0.974515 28.1565 0.974515L24.0598 10.7391H26.9232L27.4958 9.17196H30.9878L31.3095 10.7391ZM28.2869 7.00703L29.7302 3.05873L30.5422 7.00703H28.2869ZM24.2746 2.72571L24.6666 0.460022C24.6666 0.460022 23.457 0 22.196 0C20.8328 0 17.5958 0.595772 17.5958 3.49279C17.5958 6.2185 21.395 6.25236 21.395 7.68408C21.395 9.1158 17.9872 8.85925 16.8625 7.95642L16.4542 10.3254C16.4542 10.3254 17.6807 10.9212 19.5547 10.9212C21.4292 10.9212 24.2571 9.95061 24.2571 7.30901C24.2571 4.5658 20.4236 4.31039 20.4236 3.11772C20.4239 1.92476 23.0991 2.07801 24.2746 2.72571Z" fill="#2566AF"/>
</svg>
